<svg width="452" height="613" viewBox="0 0 452 613" fill="none" xmlns="http://www.w3.org/2000/svg">
<g opacity="0.15">
<path d="M-16.352 568.529C-99.7066 531.187 -185.74 444.64 136.964 397.179C459.667 349.719 131.242 235.69 -73.3086 184.608C201.86 231.242 647.99 255.423 231.162 -20.9222" stroke="#FCFCFC"/>
<path d="M-23.3832 561.419C-106.738 524.078 -192.771 437.531 129.932 390.07C452.636 342.609 124.211 228.581 -80.3398 177.499C194.829 224.132 640.959 248.314 224.131 -28.0314" stroke="#FCFCFC"/>
<path d="M-30.4145 554.31C-113.769 516.969 -199.802 430.421 122.901 382.961C445.605 335.5 117.179 221.471 -87.3711 170.389C187.797 217.023 633.928 241.205 217.1 -35.1407" stroke="#FCFCFC"/>
<path d="M-37.4496 547.201C-120.804 509.86 -206.838 423.312 115.866 375.851C438.569 328.391 110.144 214.362 -94.4062 163.28C180.762 209.914 626.893 234.095 210.065 -42.2501" stroke="#FCFCFC"/>
<path d="M-44.4809 540.091C-127.836 502.749 -213.869 416.202 108.835 368.741C431.538 321.281 103.113 207.252 -101.437 156.17C173.731 202.804 619.861 226.985 203.033 -49.3603" stroke="#FCFCFC"/>
<path d="M-51.5121 532.981C-134.867 495.64 -220.9 409.093 101.803 361.632C424.507 314.171 96.0818 200.142 -108.469 149.061C166.7 195.694 612.83 219.876 196.002 -56.4695" stroke="#FCFCFC"/>
<path d="M-58.5473 525.872C-141.902 488.531 -227.935 401.983 94.7683 354.523C417.472 307.062 89.0466 193.033 -115.504 141.951C159.665 188.585 605.795 212.767 188.967 -63.5787" stroke="#FCFCFC"/>
<path d="M-65.5785 518.763C-148.933 481.421 -234.967 394.874 87.737 347.413C410.441 299.953 82.0154 185.924 -122.535 134.842C152.633 181.476 598.764 205.657 181.936 -70.6882" stroke="#FCFCFC"/>
<path d="M-72.6137 511.653C-155.968 474.312 -242.002 387.765 80.7018 340.304C403.405 292.843 74.9802 178.815 -129.57 127.733C145.598 174.366 591.728 198.548 174.901 -77.7974" stroke="#FCFCFC"/>
<path d="M-79.6449 504.544C-163 467.203 -249.033 380.655 73.6706 333.195C396.374 285.734 67.949 171.705 -136.602 120.623C138.567 167.257 584.697 191.439 167.869 -84.9067" stroke="#FCFCFC"/>
<path d="M-86.6762 497.435C-170.031 460.094 -256.064 373.546 66.6393 326.086C389.343 278.625 60.9177 164.596 -143.633 113.514C131.536 160.148 577.666 184.329 160.838 -92.0159" stroke="#FCFCFC"/>
<path d="M-93.7113 490.325C-177.066 452.983 -263.099 366.436 59.6042 318.975C382.308 271.515 53.8826 157.486 -150.668 106.404C124.501 153.038 570.631 177.219 153.803 -99.1263" stroke="#FCFCFC"/>
<path d="M-100.743 483.215C-184.097 445.874 -270.131 359.327 52.5729 311.866C375.276 264.405 46.8513 150.376 -157.699 99.2945C117.469 145.928 563.6 170.11 146.772 -106.236" stroke="#FCFCFC"/>
<path d="M-107.774 476.106C-191.128 438.765 -277.162 352.217 45.5417 304.757C368.245 257.296 39.8201 143.267 -164.73 92.1853C110.438 138.819 556.568 163 139.74 -113.345" stroke="#FCFCFC"/>
<path d="M-114.805 468.997C-198.16 431.656 -284.193 345.108 38.5104 297.648C361.214 250.187 32.7888 136.158 -171.762 85.076C103.407 131.71 549.537 155.891 132.709 -120.454" stroke="#FCFCFC"/>
<path d="M-121.84 461.888C-205.195 424.546 -291.228 337.999 31.4753 290.538C354.179 243.078 25.7537 129.049 -178.797 77.9668C96.3717 124.601 542.502 148.782 125.674 -127.563" stroke="#FCFCFC"/>
<path d="M-128.871 454.778C-212.226 417.437 -298.26 330.889 24.444 283.429C347.148 235.968 18.7224 121.939 -185.828 70.8574C89.3405 117.491 535.471 141.673 118.643 -134.673" stroke="#FCFCFC"/>
<path d="M-135.903 447.669C-219.257 410.328 -305.291 323.78 17.4128 276.32C340.116 228.859 11.6912 114.83 -192.859 63.7481C82.3092 110.382 528.439 134.563 111.612 -141.782" stroke="#FCFCFC"/>
<path d="M-142.938 440.56C-226.293 403.219 -312.326 316.671 10.3776 269.21C333.081 221.75 4.65601 107.721 -199.895 56.6389C75.274 103.273 521.404 127.454 104.576 -148.891" stroke="#FCFCFC"/>
<path d="M-149.969 433.45C-233.324 396.108 -319.357 309.561 3.34638 262.1C326.05 214.64 -2.37524 100.611 -206.926 49.5287C68.2428 96.1626 514.373 120.344 97.5451 -156.001" stroke="#FCFCFC"/>
<path d="M-157 426.34C-240.355 388.999 -326.388 302.451 -3.68487 254.991C319.019 207.53 -9.40649 93.5012 -213.957 42.4192C61.2115 89.0531 507.342 113.234 90.5139 -163.111" stroke="#FCFCFC"/>
<path d="M-164.036 419.231C-247.39 381.89 -333.424 295.342 -10.72 247.881C311.984 200.421 -16.4416 86.3919 -220.992 35.31C54.1764 81.9439 500.307 106.125 83.4787 -170.22" stroke="#FCFCFC"/>
<path d="M-171.067 412.122C-254.421 374.78 -340.455 288.233 -17.7513 240.772C304.952 193.312 -23.4729 79.2827 -228.023 28.2008C47.1451 74.8346 493.275 99.016 76.4475 -177.329" stroke="#FCFCFC"/>
<path d="M-178.098 405.012C-261.453 367.671 -347.486 281.124 -24.7825 233.663C297.921 186.202 -30.5041 72.1735 -235.055 21.0915C40.1139 67.7254 486.244 91.9068 69.4162 -184.438" stroke="#FCFCFC"/>
<path d="M-185.133 397.903C-268.488 360.562 -354.521 274.014 -31.8177 226.554C290.886 179.093 -37.5393 65.064 -242.09 13.9821C33.0787 60.616 479.209 84.7973 62.381 -191.548" stroke="#FCFCFC"/>
</g>
</svg>
