<svg width="60" height="60" viewBox="0 0 60 60" fill="none" xmlns="http://www.w3.org/2000/svg">
<g filter="url(#filter0_b_0_404)">
<circle cx="30" cy="30" r="30" fill="#1C2AC9" fill-opacity="0.1"/>
</g>
<path d="M41.7495 19.8269L39.417 19.888L39.3864 18.7217C39.3696 18.1033 39.1081 17.5168 38.6594 17.091C38.2106 16.6651 37.6113 16.4347 36.9928 16.4503L22.9976 16.8168C22.3792 16.8336 21.7927 17.095 21.3668 17.5438C20.941 17.9926 20.7106 18.5919 20.7261 19.2104L20.7567 20.3766L18.4242 20.4377C17.8057 20.4545 17.2192 20.716 16.7934 21.1648C16.3675 21.6135 16.1371 22.2129 16.1527 22.8313L16.2443 26.3301C16.2782 27.5669 16.8013 28.7397 17.6987 29.5913C18.5962 30.4429 19.7947 30.9039 21.0315 30.873L21.4071 30.8632C21.9398 32.6357 22.9771 34.2147 24.3924 35.4075C25.8076 36.6002 27.5395 37.3551 29.3766 37.5799L29.5008 42.3219L23.6695 42.4746L23.7306 44.8072L37.7258 44.4407L37.6647 42.1082L31.8333 42.2609L31.7091 37.5153C33.5568 37.2376 35.2779 36.4094 36.6479 35.1387C38.0178 33.8681 38.9729 32.214 39.3886 30.3923L39.6918 30.3844C40.9286 30.3505 42.1014 29.8274 42.953 28.93C43.8046 28.0326 44.2656 26.834 44.2347 25.5972L44.1431 22.0984C44.1263 21.48 43.8648 20.8935 43.4161 20.4676C42.9673 20.0418 42.3679 19.8113 41.7495 19.8269ZM20.9705 28.5405C20.352 28.5561 19.7526 28.3257 19.3039 27.8998C18.8551 27.474 18.5937 26.8875 18.5769 26.2691L18.4852 22.7703L20.8178 22.7092L20.9705 28.5405ZM37.2982 28.113C37.3227 29.0501 37.1587 29.9827 36.816 30.8553C36.4732 31.7279 35.9587 32.5228 35.3029 33.1927C34.6471 33.8627 33.8634 34.3941 32.9983 34.7554C32.1332 35.1167 31.2043 35.3005 30.2668 35.296C28.4069 35.229 26.6443 34.4477 25.3456 33.1145C24.047 31.7813 23.3122 29.9988 23.2941 28.1377L23.0587 19.1493L37.0539 18.7828L37.2982 28.113ZM41.9022 25.6583C41.9178 26.2767 41.6873 26.8761 41.2615 27.3248C40.8356 27.7736 40.2492 28.0351 39.6307 28.0519L39.478 22.2205L41.8106 22.1595L41.9022 25.6583Z" fill="#1C2AC9"/>
<defs>
<filter id="filter0_b_0_404" x="-20" y="-20" width="100" height="100" filterUnits="userSpaceOnUse" color-interpolation-filters="sRGB">
<feFlood flood-opacity="0" result="BackgroundImageFix"/>
<feGaussianBlur in="BackgroundImageFix" stdDeviation="10"/>
<feComposite in2="SourceAlpha" operator="in" result="effect1_backgroundBlur_0_404"/>
<feBlend mode="normal" in="SourceGraphic" in2="effect1_backgroundBlur_0_404" result="shape"/>
</filter>
</defs>
</svg>
