<svg width="60" height="60" viewBox="0 0 60 60" fill="none" xmlns="http://www.w3.org/2000/svg">
<g filter="url(#filter0_b_0_390)">
<circle cx="30" cy="30" r="30" fill="#44E756" fill-opacity="0.1"/>
</g>
<path d="M27 18C26.2656 18 25.5612 18.2918 25.0419 18.8111C24.5225 19.3304 24.2308 20.0348 24.2308 20.7692V21.6923H17.7692C17.0348 21.6923 16.3304 21.9841 15.8111 22.5034C15.2918 23.0227 15 23.7271 15 24.4615V39.2308C15 39.9652 15.2918 40.6696 15.8111 41.1889C16.3304 41.7082 17.0348 42 17.7692 42H41.7692C42.5037 42 43.208 41.7082 43.7274 41.1889C44.2467 40.6696 44.5385 39.9652 44.5385 39.2308V24.4615C44.5385 23.7271 44.2467 23.0227 43.7274 22.5034C43.208 21.9841 42.5037 21.6923 41.7692 21.6923H35.3077V20.7692C35.3077 20.0348 35.0159 19.3304 34.4966 18.8111C33.9773 18.2918 33.2729 18 32.5385 18H27ZM27 19.8462H32.5385C32.7833 19.8462 33.0181 19.9434 33.1912 20.1165C33.3643 20.2896 33.4615 20.5244 33.4615 20.7692V21.6923H26.0769V20.7692C26.0769 20.5244 26.1742 20.2896 26.3473 20.1165C26.5204 19.9434 26.7552 19.8462 27 19.8462ZM30.4818 32.6105L42.6923 29.3557V39.2308C42.6923 39.4756 42.5951 39.7104 42.4219 39.8835C42.2488 40.0566 42.014 40.1538 41.7692 40.1538H17.7692C17.5244 40.1538 17.2896 40.0566 17.1165 39.8835C16.9434 39.7104 16.8462 39.4756 16.8462 39.2308V29.3538L29.0566 32.6105C29.5236 32.7348 30.0149 32.7348 30.4818 32.6105ZM17.7692 23.5385H41.7692C42.014 23.5385 42.2488 23.6357 42.4219 23.8088C42.5951 23.9819 42.6923 24.2167 42.6923 24.4615V27.4449L30.0074 30.8271C29.8513 30.8687 29.6871 30.8687 29.5311 30.8271L16.8462 27.4449V24.4615C16.8462 24.2167 16.9434 23.9819 17.1165 23.8088C17.2896 23.6357 17.5244 23.5385 17.7692 23.5385Z" fill="#44E756"/>
<defs>
<filter id="filter0_b_0_390" x="-20" y="-20" width="100" height="100" filterUnits="userSpaceOnUse" color-interpolation-filters="sRGB">
<feFlood flood-opacity="0" result="BackgroundImageFix"/>
<feGaussianBlur in="BackgroundImageFix" stdDeviation="10"/>
<feComposite in2="SourceAlpha" operator="in" result="effect1_backgroundBlur_0_390"/>
<feBlend mode="normal" in="SourceGraphic" in2="effect1_backgroundBlur_0_390" result="shape"/>
</filter>
</defs>
</svg>
