<svg width="36" height="36" viewBox="0 0 36 36" fill="none" xmlns="http://www.w3.org/2000/svg">
<path d="M32.9062 5.625H30.9375V5.0625C30.9375 3.50859 29.6789 2.25 28.125 2.25C26.5711 2.25 25.3125 3.50859 25.3125 5.0625V5.625H10.6875V5.0625C10.6875 3.50859 9.42891 2.25 7.875 2.25C6.32109 2.25 5.0625 3.50859 5.0625 5.0625V5.625H3.09375C2.01094 5.625 1.125 6.51094 1.125 7.59375V11.25V24.75V28.4062C1.125 29.4891 2.01094 30.375 3.09375 30.375H6.75H29.25H32.9062C33.9891 30.375 34.875 29.4891 34.875 28.4062V24.75V11.25V7.59375C34.875 6.51094 33.9891 5.625 32.9062 5.625ZM20.25 28.125H28.6875V29.25H7.3125V28.125H20.25ZM28.6875 27H20.8125V25.7273C20.8125 25.1859 21.2555 24.75 21.7898 24.75H27.7031C28.2445 24.75 28.6805 25.193 28.6805 25.7273V27H28.6875ZM27.7102 23.625H21.7969C20.6367 23.625 19.6945 24.5672 19.6945 25.7273V27H6.75H4.5V24.75V11.25V9H6.75H29.25H31.5V11.25V24.75V27H29.8125V25.7273C29.8125 24.5672 28.8703 23.625 27.7102 23.625ZM3.375 24.1875H2.25V11.8125H3.375V24.1875ZM10.125 6.75H25.875H28.6875V7.875H7.3125V6.75H10.125ZM32.625 11.8125H33.75V24.1875H32.625V11.8125ZM33.75 7.59375V10.6875H32.625V8.4375C32.625 8.12813 32.3719 7.875 32.0625 7.875H29.8125V6.75H30.375H32.9062C33.3703 6.75 33.75 7.12969 33.75 7.59375ZM26.4375 5.0625C26.4375 4.13437 27.1969 3.375 28.125 3.375C29.0531 3.375 29.8125 4.13437 29.8125 5.0625V5.625H29.25H26.4375V5.0625ZM6.1875 5.0625C6.1875 4.13437 6.94688 3.375 7.875 3.375C8.80312 3.375 9.5625 4.13437 9.5625 5.0625V5.625H6.75H6.1875V5.0625ZM2.25 7.59375C2.25 7.12969 2.62969 6.75 3.09375 6.75H5.625H6.1875V7.875H3.9375C3.62812 7.875 3.375 8.12813 3.375 8.4375V10.6875H2.25V7.59375ZM3.09375 29.25C2.62969 29.25 2.25 28.8703 2.25 28.4062V25.3125H3.375V27.5625C3.375 27.8719 3.62812 28.125 3.9375 28.125H6.1875V29.25H3.09375ZM33.75 28.4062C33.75 28.8703 33.3703 29.25 32.9062 29.25H29.8125V28.125H32.0625C32.3719 28.125 32.625 27.8719 32.625 27.5625V25.3125H33.75V28.4062ZM30.375 18C30.375 17.6906 30.1219 17.4375 29.8125 17.4375H23.857L24.982 16.3125H29.8125C30.1219 16.3125 30.375 16.0594 30.375 15.75C30.375 15.4406 30.1219 15.1875 29.8125 15.1875H26.107L26.2688 15.0258L27.232 14.0625H29.8125C30.1219 14.0625 30.375 13.8094 30.375 13.5C30.375 13.1906 30.1219 12.9375 29.8125 12.9375H28.125C28.125 12.7969 28.0688 12.6492 27.9633 12.5367L27.232 11.8125H29.8125C30.1219 11.8125 30.375 11.5594 30.375 11.25C30.375 10.9406 30.1219 10.6875 29.8125 10.6875H14.0625C13.7531 10.6875 13.5 10.9406 13.5 11.25C13.5 11.5594 13.7531 11.8125 14.0625 11.8125H24.518L23.7937 12.5367L23.393 12.9375H6.1875C5.87813 12.9375 5.625 13.1906 5.625 13.5C5.625 13.8094 5.87813 14.0625 6.1875 14.0625H22.268L21.143 15.1875H6.1875C5.87813 15.1875 5.625 15.4406 5.625 15.75C5.625 16.0594 5.87813 16.3125 6.1875 16.3125H20.018L19.2937 17.0367C19.2375 17.093 19.1953 17.1562 19.1672 17.2266L19.0828 17.4375H6.1875C5.87813 17.4375 5.625 17.6906 5.625 18C5.625 18.3094 5.87813 18.5625 6.1875 18.5625H18.6328L18.0422 20.0391C17.9578 20.25 18.007 20.4891 18.1687 20.6438C18.2742 20.7492 18.4219 20.8055 18.5695 20.8055C18.6398 20.8055 18.7102 20.7914 18.7805 20.7633L21.593 19.6383C21.6633 19.6102 21.7266 19.568 21.7828 19.5117L22.7461 18.5484H29.8125C30.1219 18.5625 30.375 18.3094 30.375 18ZM25.875 12.0445L26.768 12.9375L25.875 13.8305L24.982 12.9375L25.875 12.0445ZM21.0586 18.6469L19.575 19.2445L19.9828 18.225L20.1656 17.7609L24.1875 13.7391L25.0805 14.632L21.0586 18.6469ZM16.875 20.25C16.875 20.5594 16.6219 20.8125 16.3125 20.8125H6.1875C5.87813 20.8125 5.625 20.5594 5.625 20.25C5.625 19.9406 5.87813 19.6875 6.1875 19.6875H16.3125C16.6219 19.6875 16.875 19.9406 16.875 20.25Z" fill="#FCFCFC"/>
</svg>
