<svg width="36" height="36" viewBox="0 0 36 36" fill="none" xmlns="http://www.w3.org/2000/svg">
<path d="M30.375 27C29.8739 27.0023 29.3797 27.1177 28.9294 27.3375L24.0919 22.5H20.25V24.75H23.1593L27.3386 28.9294C27.1186 29.3797 27.0029 29.8738 27 30.375C27 31.0425 27.1979 31.695 27.5688 32.2501C27.9396 32.8051 28.4667 33.2376 29.0834 33.4931C29.7001 33.7485 30.3787 33.8154 31.0334 33.6852C31.6881 33.5549 32.2895 33.2335 32.7615 32.7615C33.2335 32.2895 33.5549 31.6881 33.6852 31.0334C33.8154 30.3787 33.7485 29.7001 33.4931 29.0834C33.2376 28.4667 32.8051 27.9396 32.25 27.5688C31.695 27.1979 31.0425 27 30.375 27ZM30.375 31.5C30.1525 31.5 29.935 31.434 29.75 31.3104C29.565 31.1868 29.4208 31.0111 29.3356 30.8055C29.2505 30.6 29.2282 30.3738 29.2716 30.1555C29.315 29.9373 29.4222 29.7368 29.5795 29.5795C29.7368 29.4222 29.9373 29.315 30.1555 29.2716C30.3738 29.2282 30.6 29.2505 30.8055 29.3356C31.0111 29.4208 31.1868 29.565 31.3104 29.75C31.434 29.935 31.5 30.1525 31.5 30.375C31.5 30.6734 31.3815 30.9595 31.1705 31.1705C30.9595 31.3815 30.6734 31.5 30.375 31.5ZM30.375 14.625C29.6793 14.6271 29.0012 14.8445 28.434 15.2473C27.8668 15.6502 27.4381 16.2188 27.207 16.875H20.25V19.125H27.207C27.4143 19.7068 27.7774 20.2205 28.2569 20.6099C28.7363 20.9992 29.3136 21.2493 29.9255 21.3328C30.5375 21.4163 31.1606 21.33 31.7268 21.0833C32.2931 20.8366 32.7806 20.439 33.1361 19.934C33.4917 19.4289 33.7016 18.8359 33.7429 18.2196C33.7841 17.6034 33.6553 16.9876 33.3703 16.4397C33.0853 15.8917 32.6552 15.4327 32.1269 15.1126C31.5987 14.7926 30.9926 14.6239 30.375 14.625ZM30.375 19.125C30.1525 19.125 29.935 19.059 29.75 18.9354C29.565 18.8118 29.4208 18.6361 29.3356 18.4305C29.2505 18.225 29.2282 17.9988 29.2716 17.7805C29.315 17.5623 29.4222 17.3618 29.5795 17.2045C29.7368 17.0472 29.9373 16.94 30.1555 16.8966C30.3738 16.8532 30.6 16.8755 30.8055 16.9606C31.0111 17.0458 31.1868 17.19 31.3104 17.375C31.434 17.56 31.5 17.7775 31.5 18C31.5 18.2984 31.3815 18.5845 31.1705 18.7955C30.9595 19.0065 30.6734 19.125 30.375 19.125ZM30.375 2.25C29.4802 2.25089 28.6222 2.60676 27.9895 3.2395C27.3568 3.87224 27.0009 4.73017 27 5.625C27.0038 6.16394 27.1382 6.69392 27.3915 7.16963L23.1705 11.25H20.25V13.5H24.0795L29.0295 8.7165C29.4893 8.91701 29.9881 9.01247 30.4894 8.99591C30.9908 8.97936 31.4822 8.85121 31.9278 8.6208C32.3733 8.39039 32.762 8.06352 33.0653 7.66398C33.3686 7.26444 33.579 6.80228 33.6812 6.31117C33.7834 5.82005 33.7748 5.31232 33.656 4.82495C33.5372 4.33758 33.3112 3.88283 32.9945 3.4938C32.6778 3.10478 32.2784 2.79128 31.8252 2.57611C31.3721 2.36095 30.8766 2.24954 30.375 2.25ZM30.375 6.75C30.1525 6.75 29.935 6.68402 29.75 6.5604C29.565 6.43679 29.4208 6.26109 29.3356 6.05552C29.2505 5.84995 29.2282 5.62375 29.2716 5.40552C29.315 5.1873 29.4222 4.98684 29.5795 4.82951C29.7368 4.67217 29.9373 4.56503 30.1555 4.52162C30.3738 4.47821 30.6 4.50049 30.8055 4.58564C31.0111 4.67079 31.1868 4.81498 31.3104 4.99998C31.434 5.18499 31.5 5.4025 31.5 5.625C31.5 5.92337 31.3815 6.20952 31.1705 6.4205C30.9595 6.63147 30.6734 6.75 30.375 6.75Z" fill="#FCFCFC"/>
<path d="M20.25 6.75H22.5V4.5H20.25C19.6089 4.50214 18.9757 4.64208 18.3934 4.91033C17.8111 5.17857 17.2933 5.56887 16.875 6.05475C16.4567 5.56887 15.9389 5.17857 15.3566 4.91033C14.7743 4.64208 14.1411 4.50214 13.5 4.5H12.375C9.6906 4.50298 7.11699 5.57067 5.21883 7.46883C3.32067 9.36699 2.25298 11.9406 2.25 14.625V21.375C2.25298 24.0594 3.32067 26.633 5.21883 28.5312C7.11699 30.4293 9.6906 31.497 12.375 31.5H13.5C14.1411 31.4979 14.7743 31.3579 15.3566 31.0897C15.9389 30.8214 16.4567 30.4311 16.875 29.9452C17.2933 30.4311 17.8111 30.8214 18.3934 31.0897C18.9757 31.3579 19.6089 31.4979 20.25 31.5H22.5V29.25H20.25C19.6534 29.2494 19.0815 29.0122 18.6597 28.5903C18.2378 28.1685 18.0006 27.5966 18 27V9C18.0006 8.40345 18.2378 7.8315 18.6597 7.40967C19.0815 6.98784 19.6534 6.7506 20.25 6.75ZM13.5 29.25H12.375C10.4832 29.2466 8.65584 28.5628 7.22653 27.3236C5.79722 26.0843 4.86141 24.3722 4.59 22.5H6.75V20.25H4.5V15.75H7.875C8.76983 15.7491 9.62776 15.3932 10.2605 14.7605C10.8932 14.1278 11.2491 13.2698 11.25 12.375V10.125H9V12.375C9 12.6734 8.88147 12.9595 8.6705 13.1705C8.45952 13.3815 8.17337 13.5 7.875 13.5H4.59C4.86141 11.6278 5.79722 9.91573 7.22653 8.67645C8.65584 7.43716 10.4832 6.75338 12.375 6.75H13.5C14.0966 6.7506 14.6685 6.98784 15.0903 7.40967C15.5122 7.8315 15.7494 8.40345 15.75 9V13.5H13.5V15.75H15.75V20.25H13.5C12.6052 20.2509 11.7472 20.6068 11.1145 21.2395C10.4818 21.8722 10.1259 22.7302 10.125 23.625V25.875H12.375V23.625C12.375 23.3266 12.4935 23.0405 12.7045 22.8295C12.9155 22.6185 13.2016 22.5 13.5 22.5H15.75V27C15.7494 27.5966 15.5122 28.1685 15.0903 28.5903C14.6685 29.0122 14.0966 29.2494 13.5 29.25Z" fill="#FCFCFC"/>
</svg>
