<svg width="36" height="36" viewBox="0 0 36 36" fill="none" xmlns="http://www.w3.org/2000/svg">
<path d="M31.5 15C26.6242 15.2828 21.935 16.973 18 19.866C14.065 16.973 9.37579 15.2828 4.5 15V19.44C3.70302 19.4416 2.93929 19.7596 2.37673 20.3241C1.81416 20.8887 1.49881 21.6535 1.5 22.4505V23.9565C1.5 25.62 4.5 27.2685 4.5 27.2685V30.279C8.48401 30.5352 12.3262 31.8562 15.6255 34.104C16.4586 34.6821 17.2519 35.3155 18 36C18.7481 35.3155 19.5414 34.6821 20.3745 34.104C23.6738 31.8562 27.516 30.5352 31.5 30.279V26.967C32.297 26.9654 33.0607 26.6474 33.6233 26.0829C34.1858 25.5183 34.5012 24.7535 34.5 23.9565V22.4505C34.5012 21.6535 34.1858 20.8887 33.6233 20.3241C33.0607 19.7596 32.297 19.4416 31.5 19.44V15ZM18 32.133C14.889 29.8531 11.2972 28.3158 7.5 27.639V18.414C10.4101 19.0003 13.1731 20.1642 15.6255 21.837C16.4586 22.4151 17.2519 23.0485 18 23.733C18.7481 23.0485 19.5414 22.4151 20.3745 21.837C22.8268 20.1637 25.5898 18.9992 28.5 18.4125V27.639C24.7028 28.3158 21.111 29.8531 18 32.133ZM16.5 12H19.5V13.5H16.5V12ZM16.5 6H19.5V7.5H16.5V6Z" fill="#FCFCFC"/>
<path d="M16.5 14.9999H19.5V16.4999H16.5V14.9999ZM13.5 7.49993C13.8979 7.49993 14.2794 7.34189 14.5607 7.06059C14.842 6.77929 15 6.39776 15 5.99993C15.0014 5.80453 14.964 5.6108 14.8898 5.43C14.8157 5.2492 14.7064 5.08494 14.5682 4.94676C14.43 4.80859 14.2658 4.69926 14.085 4.62512C13.9042 4.55099 13.7104 4.51353 13.515 4.51493C13.319 4.51395 13.1248 4.55157 12.9433 4.62567C12.7619 4.69977 12.5968 4.80888 12.4575 4.94677C12.1762 5.22526 12.017 5.60409 12.015 5.99993C12.013 6.39577 12.1684 6.77618 12.4469 7.05748C12.7254 7.33879 13.1042 7.49794 13.5 7.49993Z" fill="#FCFCFC"/>
<path d="M22.5 7.5C23.3284 7.5 24 6.82843 24 6C24 5.17157 23.3284 4.5 22.5 4.5C21.6716 4.5 21 5.17157 21 6C21 6.82843 21.6716 7.5 22.5 7.5Z" fill="#FCFCFC"/>
<path d="M24 12H12C10.8069 11.9988 9.66299 11.5243 8.81933 10.6807C7.97568 9.83701 7.50119 8.69311 7.5 7.5V4.5C7.50119 3.30689 7.97568 2.16299 8.81933 1.31934C9.66299 0.47568 10.8069 0.00119132 12 0L24 0C25.1931 0.00119132 26.337 0.47568 27.1807 1.31934C28.0243 2.16299 28.4988 3.30689 28.5 4.5V7.5C28.4988 8.69311 28.0243 9.83701 27.1807 10.6807C26.337 11.5243 25.1931 11.9988 24 12ZM12 3C11.6023 3.0004 11.221 3.15856 10.9398 3.43978C10.6586 3.721 10.5004 4.1023 10.5 4.5V7.5C10.5004 7.8977 10.6586 8.279 10.9398 8.56022C11.221 8.84144 11.6023 8.9996 12 9H24C24.3977 8.9996 24.779 8.84144 25.0602 8.56022C25.3414 8.279 25.4996 7.8977 25.5 7.5V4.5C25.4996 4.1023 25.3414 3.721 25.0602 3.43978C24.779 3.15856 24.3977 3.0004 24 3H12Z" fill="#FCFCFC"/>
</svg>
