<svg width="36" height="36" viewBox="0 0 36 36" fill="none" xmlns="http://www.w3.org/2000/svg">
<path d="M0 12V1.71429H3.45738V5.74286C4.92677 3.91429 6.72058 2.5 8.8388 1.5C10.957 0.5 13.1968 0 15.5582 0C19.88 0 23.5534 1.5 26.5786 4.5C29.6038 7.5 31.1164 11.1429 31.1164 15.4286H27.6591C27.6591 12.0857 26.4847 9.24971 24.136 6.92057C21.7873 4.59143 18.928 3.42743 15.5582 3.42857C13.5702 3.42857 11.7119 3.88571 9.98319 4.8C8.2545 5.71429 6.79952 6.97143 5.61825 8.57143H10.3721V12H0ZM0.0864345 17.1429H3.63025C3.97599 19.8 5.07832 22.0503 6.93724 23.8937C8.79616 25.7371 11.0216 26.8583 13.6134 27.2571L15.6879 30.8571C11.7119 30.8571 8.22569 29.5503 5.22929 26.9366C2.23289 24.3229 0.518607 21.0583 0.0864345 17.1429ZM17.892 20.1429L13.8295 16.1143V6.85714H17.2869V14.7429L19.7071 17.1429L17.892 20.1429ZM25.8872 36L25.3685 33.4286C25.0228 33.2857 24.6984 33.1354 24.3953 32.9777C24.0922 32.82 23.7828 32.6274 23.467 32.4L20.9604 33.1714L19.2317 30.2571L21.2197 28.5429C21.1621 28.1714 21.1333 27.8 21.1333 27.4286C21.1333 27.0571 21.1621 26.6857 21.2197 26.3143L19.2317 24.6L20.9604 21.6857L23.467 22.4571C23.7839 22.2286 24.0933 22.036 24.3953 21.8794C24.6972 21.7229 25.0217 21.5726 25.3685 21.4286L25.8872 18.8571H29.3445L29.8631 21.4286C30.2089 21.5714 30.5402 21.736 30.8571 21.9223C31.1741 22.1086 31.4766 22.3154 31.7647 22.5429L34.2713 21.6857L36 24.6857L34.012 26.4C34.0696 26.7714 34.0984 27.1286 34.0984 27.4714C34.0984 27.8143 34.0696 28.1714 34.012 28.5429L36 30.2571L34.2713 33.1714L31.7647 32.4C31.4478 32.6286 31.1383 32.8217 30.8364 32.9794C30.5345 33.1371 30.21 33.2869 29.8631 33.4286L29.3445 36H25.8872ZM27.6158 30.8571C28.5666 30.8571 29.3808 30.5211 30.0585 29.8491C30.7361 29.1771 31.0744 28.3703 31.0732 27.4286C31.0732 26.4857 30.7344 25.6783 30.0568 25.0063C29.3791 24.3343 28.566 23.9989 27.6176 24C26.6668 24 25.8526 24.336 25.1749 25.008C24.4973 25.68 24.159 26.4869 24.1602 27.4286C24.1602 28.3714 24.499 29.1789 25.1767 29.8509C25.8543 30.5229 26.6662 30.8583 27.6158 30.8571Z" fill="#FCFCFC"/>
</svg>
