<svg width="36" height="36" viewBox="0 0 36 36" fill="none" xmlns="http://www.w3.org/2000/svg">
<path fill-rule="evenodd" clip-rule="evenodd" d="M18 33.75C20.415 33.75 24.546 30.6 24.546 18C24.546 5.4 20.415 2.25 18 2.25C15.585 2.25 11.4547 5.61225 11.4547 18C11.4547 30.3878 15.585 33.75 18 33.75Z" stroke="#FCFCFC" stroke-width="2" stroke-linecap="round" stroke-linejoin="round"/>
<path fill-rule="evenodd" clip-rule="evenodd" d="M3.82879 26.2499C5.03629 28.3589 9.93604 30.3156 21.273 23.7156C32.61 17.1156 33.3795 11.8589 32.1713 9.7506C30.9638 7.64085 25.8735 5.7951 14.7278 12.2841C3.58129 18.7731 2.62129 24.1409 3.82879 26.2499Z" stroke="#FCFCFC" stroke-width="2" stroke-linecap="round" stroke-linejoin="round"/>
<path fill-rule="evenodd" clip-rule="evenodd" d="M3.82875 9.74996C2.62125 11.859 3.39 17.1157 14.7277 23.7157C26.0647 30.3157 30.9637 28.359 32.1712 26.2507C33.3787 24.141 32.4187 18.7732 21.273 12.2842C10.1265 5.79521 5.03625 7.64096 3.82875 9.74996Z" stroke="#FCFCFC" stroke-width="2" stroke-linecap="round" stroke-linejoin="round"/>
</svg>
