<svg width="300" height="867" viewBox="0 0 300 867" fill="none" xmlns="http://www.w3.org/2000/svg">
<g opacity="0.15">
<path d="M-168.394 822.961C-251.749 785.619 -337.782 699.072 -15.0786 651.611C307.625 604.151 -20.8002 490.122 -225.351 439.04C49.8179 485.674 495.948 509.855 79.1202 233.51" stroke="#FCFCFC"/>
<path d="M-175.425 815.851C-258.78 778.51 -344.813 691.963 -22.1098 644.502C300.594 597.041 -27.8314 483.012 -232.382 431.931C42.7866 478.564 488.917 502.746 72.0889 226.401" stroke="#FCFCFC"/>
<path d="M-182.457 808.742C-265.811 771.401 -351.845 684.853 -29.1411 637.393C293.562 589.932 -34.8627 475.903 -239.413 424.821C35.7554 471.455 481.886 495.637 65.0577 219.291" stroke="#FCFCFC"/>
<path d="M-189.492 801.633C-272.846 764.291 -358.88 677.744 -36.1762 630.283C286.527 582.823 -41.8978 468.794 -246.448 417.712C28.7202 464.346 474.85 488.527 58.0225 212.182" stroke="#FCFCFC"/>
<path d="M-196.523 794.523C-279.878 757.181 -365.911 670.634 -43.2075 623.173C279.496 575.713 -48.9291 461.684 -253.48 410.602C21.689 457.236 467.819 481.417 50.9913 205.072" stroke="#FCFCFC"/>
<path d="M-203.554 787.413C-286.909 750.072 -372.942 663.525 -50.2387 616.064C272.465 568.603 -55.9603 454.574 -260.511 403.492C14.6577 450.126 460.788 474.308 43.96 197.962" stroke="#FCFCFC"/>
<path d="M-210.589 780.304C-293.944 742.963 -379.977 656.415 -57.2739 608.955C265.43 561.494 -62.9955 447.465 -267.546 396.383C7.62255 443.017 453.753 467.198 36.9249 190.853" stroke="#FCFCFC"/>
<path d="M-217.621 773.195C-300.975 735.853 -387.009 649.306 -64.3051 601.845C258.398 554.385 -70.0267 440.356 -274.577 389.274C0.591305 435.908 446.722 460.089 29.8936 183.744" stroke="#FCFCFC"/>
<path d="M-224.656 766.085C-308.01 728.744 -394.044 642.197 -71.3403 594.736C251.363 547.275 -77.0619 433.246 -281.612 382.165C-6.44385 428.798 439.686 452.98 22.8585 176.634" stroke="#FCFCFC"/>
<path d="M-231.687 758.976C-315.042 721.635 -401.075 635.087 -78.3715 587.627C244.332 540.166 -84.0931 426.137 -288.644 375.055C-13.4751 421.689 432.655 445.871 15.8272 169.525" stroke="#FCFCFC"/>
<path d="M-238.718 751.867C-322.073 714.526 -408.106 627.978 -85.4028 580.518C237.301 533.057 -91.1244 419.028 -295.675 367.946C-20.5064 414.58 425.624 438.761 8.79596 162.416" stroke="#FCFCFC"/>
<path d="M-245.753 744.756C-329.108 707.415 -415.141 620.868 -92.4379 573.407C230.266 525.947 -98.1595 411.918 -302.71 360.836C-27.5415 407.47 418.589 431.651 1.7608 155.306" stroke="#FCFCFC"/>
<path d="M-252.785 737.647C-336.139 700.306 -422.173 613.758 -99.4692 566.298C223.234 518.837 -105.191 404.808 -309.741 353.726C-34.5728 400.36 411.557 424.542 -5.27045 148.196" stroke="#FCFCFC"/>
<path d="M-259.816 730.538C-343.171 693.197 -429.204 606.649 -106.5 559.189C216.203 511.728 -112.222 397.699 -316.773 346.617C-41.604 393.251 404.526 417.432 -12.3017 141.087" stroke="#FCFCFC"/>
<path d="M-266.847 723.429C-350.202 686.088 -436.235 599.54 -113.532 552.079C209.172 504.619 -119.253 390.59 -323.804 339.508C-48.6353 386.142 397.495 410.323 -19.3329 133.978" stroke="#FCFCFC"/>
<path d="M-273.882 716.32C-357.237 678.978 -443.27 592.431 -120.567 544.97C202.137 497.51 -126.288 383.481 -330.839 332.399C-55.6704 379.033 390.46 403.214 -26.3681 126.869" stroke="#FCFCFC"/>
<path d="M-280.914 709.21C-364.268 671.869 -450.302 585.321 -127.598 537.861C195.105 490.4 -133.32 376.371 -337.87 325.289C-62.7017 371.923 383.429 396.105 -33.3994 119.759" stroke="#FCFCFC"/>
<path d="M-287.945 702.101C-371.299 664.76 -457.333 578.212 -134.629 530.752C188.074 483.291 -140.351 369.262 -344.901 318.18C-69.7329 364.814 376.397 388.995 -40.4306 112.65" stroke="#FCFCFC"/>
<path d="M-294.98 694.992C-378.335 657.65 -464.368 571.103 -141.664 523.642C181.039 476.182 -147.386 362.153 -351.937 311.071C-76.7681 357.705 369.362 381.886 -47.4658 105.541" stroke="#FCFCFC"/>
<path d="M-302.011 687.881C-385.366 650.54 -471.399 563.993 -148.696 516.532C174.008 469.072 -154.417 355.043 -358.968 303.961C-83.7993 350.595 362.331 374.776 -54.497 98.4306" stroke="#FCFCFC"/>
<path d="M-309.043 680.772C-392.397 643.431 -478.431 556.883 -155.727 509.423C166.977 461.962 -161.449 347.933 -365.999 296.851C-90.8306 343.485 355.3 367.666 -61.5283 91.3212" stroke="#FCFCFC"/>
<path d="M-316.078 673.663C-399.432 636.322 -485.466 549.774 -162.762 502.313C159.941 454.853 -168.484 340.824 -373.034 289.742C-97.8657 336.376 348.264 360.557 -68.5634 84.2119" stroke="#FCFCFC"/>
<path d="M-323.109 666.554C-406.464 629.212 -492.497 542.665 -169.793 495.204C152.91 447.744 -175.515 333.715 -380.066 282.633C-104.897 329.267 341.233 353.448 -75.5947 77.1027" stroke="#FCFCFC"/>
<path d="M-330.14 659.444C-413.495 622.103 -499.528 535.556 -176.825 488.095C145.879 440.634 -182.546 326.605 -387.097 275.523C-111.928 322.157 334.202 346.339 -82.6259 69.9935" stroke="#FCFCFC"/>
<path d="M-337.175 652.335C-420.53 614.994 -506.563 528.446 -183.86 480.986C138.844 433.525 -189.581 319.496 -394.132 268.414C-118.963 315.048 327.167 339.229 -89.6611 62.884" stroke="#FCFCFC"/>
</g>
</svg>
