<svg width="60" height="60" viewBox="0 0 60 60" fill="none" xmlns="http://www.w3.org/2000/svg">
<g filter="url(#filter0_b_0_383)">
<circle cx="30" cy="30" r="30" fill="#F799FF" fill-opacity="0.1"/>
</g>
<path d="M43.5593 26.1424C45.2341 24.4677 44.4704 22.5116 43.5593 21.5603L39.54 17.541C37.8519 15.8663 35.9092 16.6299 34.9579 17.541L32.6803 19.832H29.2103C26.6647 19.832 25.1909 21.1718 24.4406 22.7126L18.492 28.6612V34.0203L17.5408 34.9582C15.866 36.6463 16.6297 38.589 17.5408 39.5402L21.5601 43.5596C22.2836 44.2831 23.0607 44.551 23.7975 44.551C24.7488 44.551 25.6196 44.0821 26.1422 43.5596L29.7596 39.9288H34.5694C36.847 39.9288 37.9992 38.5086 38.4146 37.1152C39.9285 36.7133 40.7592 35.5611 41.0941 34.4357C43.1708 33.8997 43.9479 31.9303 43.9479 30.5503V26.5309H43.1574L43.5593 26.1424ZM41.2683 30.5503C41.2683 31.1532 41.0138 31.8901 39.9285 31.8901H38.5887V33.2299C38.5887 33.8328 38.3342 34.5696 37.249 34.5696H35.9092V35.9094C35.9092 36.5123 35.6546 37.2492 34.5694 37.2492H28.661L24.2665 41.6437C23.8511 42.0322 23.61 41.8045 23.4626 41.6571L19.4566 37.6645C19.0681 37.2492 19.2959 37.008 19.4432 36.8607L21.1716 35.1189V29.7598L23.8511 27.0803V29.2105C23.8511 30.8316 24.923 33.2299 27.8705 33.2299C30.818 33.2299 31.8898 30.8316 31.8898 29.2105H41.2683V30.5503ZM41.6568 24.2399L39.3792 26.5309H29.2103V29.2105C29.2103 29.8134 28.9557 30.5503 27.8705 30.5503C26.7853 30.5503 26.5307 29.8134 26.5307 29.2105V25.1912C26.5307 24.5749 26.7585 22.5116 29.2103 22.5116H33.7789L36.8336 19.4569C37.249 19.0683 37.4901 19.2961 37.6375 19.4435L41.6435 23.436C42.032 23.8514 41.8042 24.0925 41.6568 24.2399Z" fill="#F799FF"/>
<defs>
<filter id="filter0_b_0_383" x="-20" y="-20" width="100" height="100" filterUnits="userSpaceOnUse" color-interpolation-filters="sRGB">
<feFlood flood-opacity="0" result="BackgroundImageFix"/>
<feGaussianBlur in="BackgroundImageFix" stdDeviation="10"/>
<feComposite in2="SourceAlpha" operator="in" result="effect1_backgroundBlur_0_383"/>
<feBlend mode="normal" in="SourceGraphic" in2="effect1_backgroundBlur_0_383" result="shape"/>
</filter>
</defs>
</svg>
