<svg width="36" height="36" viewBox="0 0 36 36" fill="none" xmlns="http://www.w3.org/2000/svg">
<path d="M18 28.1251C16.7005 28.1262 15.421 27.8053 14.2759 27.191C13.1307 26.5768 12.1557 25.6883 11.4379 24.605L13.3121 23.3596C13.8252 24.1333 14.5218 24.768 15.3398 25.207C16.1577 25.6461 17.0716 25.8758 18 25.8758C18.9284 25.8758 19.8423 25.6461 20.6602 25.207C21.4782 24.768 22.1748 24.1333 22.6879 23.3596L24.5621 24.605C23.8443 25.6883 22.8693 26.5768 21.7241 27.191C20.579 27.8053 19.2995 28.1262 18 28.1251ZM22.5 15.7501C22.055 15.7501 21.62 15.8821 21.25 16.1293C20.88 16.3765 20.5916 16.7279 20.4213 17.1391C20.251 17.5502 20.2064 18.0026 20.2932 18.4391C20.3801 18.8755 20.5943 19.2764 20.909 19.5911C21.2237 19.9058 21.6246 20.1201 22.061 20.2069C22.4975 20.2937 22.9499 20.2491 23.361 20.0788C23.7722 19.9085 24.1236 19.6202 24.3708 19.2501C24.618 18.8801 24.75 18.4451 24.75 18.0001C24.753 17.7038 24.6969 17.4099 24.5849 17.1355C24.4729 16.8612 24.3072 16.612 24.0977 16.4024C23.8882 16.1929 23.6389 16.0273 23.3646 15.9153C23.0902 15.8032 22.7963 15.7471 22.5 15.7501ZM13.5 15.7501C13.055 15.7501 12.62 15.8821 12.25 16.1293C11.88 16.3765 11.5916 16.7279 11.4213 17.1391C11.251 17.5502 11.2064 18.0026 11.2932 18.4391C11.3801 18.8755 11.5943 19.2764 11.909 19.5911C12.2237 19.9058 12.6246 20.1201 13.061 20.2069C13.4975 20.2937 13.9499 20.2491 14.361 20.0788C14.7722 19.9085 15.1236 19.6202 15.3708 19.2501C15.618 18.8801 15.75 18.4451 15.75 18.0001C15.753 17.7038 15.6969 17.4099 15.5849 17.1355C15.4729 16.8612 15.3072 16.612 15.0977 16.4024C14.8882 16.1929 14.6389 16.0273 14.3646 15.9153C14.0902 15.8032 13.7963 15.7471 13.5 15.7501Z" fill="#FCFCFC"/>
<path d="M33.75 18V15.75H31.5V11.25C31.4985 10.057 31.0239 8.91325 30.1803 8.06966C29.3367 7.22607 28.193 6.75149 27 6.75H24.75V2.25H22.5V6.75H13.5V2.25H11.25V6.75H9C7.80698 6.75149 6.66325 7.22607 5.81966 8.06966C4.97607 8.91325 4.50149 10.057 4.5 11.25V15.75H2.25V18H4.5V23.625H2.25V25.875H4.5V29.25C4.50149 30.443 4.97607 31.5867 5.81966 32.4303C6.66325 33.2739 7.80698 33.7485 9 33.75H27C28.193 33.7485 29.3367 33.2739 30.1803 32.4303C31.0239 31.5867 31.4985 30.443 31.5 29.25V25.875H33.75V23.625H31.5V18H33.75ZM29.25 29.25C29.2494 29.8466 29.0122 30.4185 28.5903 30.8403C28.1685 31.2622 27.5966 31.4994 27 31.5H9C8.40345 31.4994 7.8315 31.2622 7.40967 30.8403C6.98784 30.4185 6.7506 29.8466 6.75 29.25V11.25C6.7506 10.6534 6.98784 10.0815 7.40967 9.65967C7.8315 9.23784 8.40345 9.0006 9 9H27C27.5966 9.0006 28.1685 9.23784 28.5903 9.65967C29.0122 10.0815 29.2494 10.6534 29.25 11.25V29.25Z" fill="#FCFCFC"/>
</svg>
