<svg width="36" height="36" viewBox="0 0 36 36" fill="none" xmlns="http://www.w3.org/2000/svg">
<g clip-path="url(#clip0_1189_547)">
<path fill-rule="evenodd" clip-rule="evenodd" d="M18 0C8.06325 0 0 8.06325 0 18C0 27.9368 8.06325 36 18 36C27.9368 36 36 27.9368 36 18C36 8.06325 27.9368 0 18 0ZM18 0.75C27.531 0.75 35.25 8.46825 35.25 18C35.25 27.5317 27.531 35.25 18 35.25C8.469 35.25 0.75 27.5317 0.75 18C0.75 8.46825 8.469 0.75 18 0.75ZM19.8165 8.2485C19.717 8.2485 19.6217 8.28801 19.5513 8.35833C19.481 8.42866 19.4415 8.52404 19.4415 8.6235V11.1637C19.4415 11.4555 19.2698 11.8328 18.9578 12.255C18.6465 12.6772 18.2108 13.1332 17.7645 13.6073C17.0505 14.3647 16.284 15.1575 16.002 16.0605H13.8923V13.1235C13.8923 13.024 13.8527 12.9287 13.7824 12.8583C13.7121 12.788 13.6167 12.7485 13.5173 12.7485H8.625C8.52554 12.7485 8.43016 12.788 8.35983 12.8583C8.28951 12.9287 8.25 13.024 8.25 13.1235V25.875C8.25 25.9745 8.28951 26.0698 8.35983 26.1402C8.43016 26.2105 8.52554 26.25 8.625 26.25H13.5173C13.6167 26.25 13.7121 26.2105 13.7824 26.1402C13.8527 26.0698 13.8923 25.9745 13.8923 25.875V24.2535C13.9521 24.2854 14.0195 24.3004 14.0873 24.297H15.7057L15.7005 24.2843L15.687 24.2542C15.7283 24.3555 15.7785 24.4492 15.8348 24.5363H15.8363C15.8962 24.627 15.9638 24.7087 16.0328 24.7808L16.0358 24.7882C16.2615 25.0172 16.5498 25.1745 16.8645 25.2405C16.8743 25.2405 16.884 25.248 16.8945 25.2495C16.9567 25.257 17.0588 25.2795 17.193 25.2795H25.4175C25.44 25.2795 25.4618 25.2795 25.4835 25.272H26.5747C26.982 25.272 27.3412 25.0567 27.5805 24.7515C27.8205 24.4455 27.9555 24.045 27.9555 23.61C27.9555 23.2125 27.8377 22.8465 27.6353 22.5525C28.2083 22.3088 28.602 21.696 28.602 21.0075C28.602 20.5928 28.4572 20.2073 28.2195 19.9103C28.5245 19.7845 28.7852 19.5711 28.9687 19.297C29.1522 19.0228 29.2501 18.7004 29.25 18.3705C29.25 17.841 28.998 17.3693 28.6125 17.064C28.9973 16.7603 29.25 16.2945 29.25 15.7673C29.25 14.8553 28.5075 14.1083 27.5978 14.1083H24.3293C23.9587 14.1083 23.6197 14.235 23.3438 14.4435C23.2453 13.874 23.0548 13.3243 22.7797 12.816V10.9613C22.7797 9.45 21.4688 8.25 19.887 8.25H19.8165V8.2485ZM20.1915 9.1155C21.2235 9.2685 22.0297 9.9915 22.0297 10.9613V12.87C22.0297 12.8932 22.0312 12.9165 22.0358 12.939L22.0462 12.9915C22.0538 13.032 22.068 13.0717 22.0882 13.1077C22.7558 14.2837 22.8653 15.9 22.3582 17.2222C21.8505 18.5445 20.856 19.317 19.818 19.317H16.2585C15.7515 19.3095 15.7515 20.0745 16.2585 20.067H19.818C20.6992 20.067 21.5145 19.6605 22.1467 18.9788C22.2533 19.2518 22.4303 19.485 22.6537 19.6658C22.4568 19.8294 22.2987 20.0347 22.1908 20.2668C22.0829 20.499 22.0279 20.7522 22.0297 21.0082C22.0297 21.5138 22.2442 21.9735 22.5817 22.2833C22.5169 22.3404 22.4571 22.4031 22.4032 22.4708C22.1551 22.7987 22.0236 23.2002 22.0297 23.6115C22.0297 23.9475 22.1122 24.2618 22.2585 24.5288H17.193C17.1562 24.5288 17.0887 24.516 17.001 24.5055C16.8935 24.4839 16.7918 24.44 16.7025 24.3765H16.701C16.5577 24.278 16.4461 24.1399 16.38 23.979C16.376 23.9698 16.3714 23.9608 16.3665 23.952L16.269 23.76C16.2375 23.6985 16.1895 23.6468 16.1305 23.6108C16.0715 23.5748 16.0036 23.5559 15.9345 23.556H14.0497V23.547C13.9946 23.5482 13.9405 23.5629 13.8923 23.5897V16.8105H15.8865C15.9457 17.2778 16.6365 17.2312 16.6335 16.761C16.6335 16.0117 17.424 15.0622 18.3105 14.121C18.7537 13.6507 19.206 13.1812 19.5615 12.7005C19.8345 12.3308 19.9552 11.928 20.0452 11.5192C20.1938 11.172 20.1217 11.3347 20.1683 11.2297L20.1908 11.1637V9.11625L20.1915 9.1155ZM9 13.4985H13.1423V25.5H9V13.4985ZM24.33 14.8583H27.5978C28.1033 14.8583 28.5 15.2558 28.5 15.7673C28.5 16.2795 28.1025 16.6785 27.5978 16.6785H24.3293C24.2098 16.6792 24.0914 16.6561 23.981 16.6104C23.8707 16.5648 23.7705 16.4975 23.6865 16.4126C23.6024 16.3278 23.5362 16.2269 23.4916 16.1161C23.4471 16.0053 23.4251 15.8867 23.427 15.7673C23.427 15.255 23.8252 14.8583 24.33 14.8583ZM23.6625 17.4608H27.6165C28.1077 17.4608 28.5 17.8568 28.5 18.372C28.5 18.8873 28.1077 19.2833 27.6165 19.2833H23.6632C23.172 19.2833 22.7797 18.8873 22.7797 18.372C22.7797 17.8568 23.172 17.4608 23.6632 17.4608H23.6625ZM23.5373 20.0978H27.0952C27.4942 20.0978 27.8528 20.4735 27.8528 21.009C27.8528 21.5437 27.4942 21.9202 27.0952 21.9202H23.5373C23.1383 21.9202 22.7797 21.5437 22.7797 21.009C22.7797 20.4735 23.1383 20.0978 23.5373 20.0978ZM11.0715 21.765C10.6208 21.765 10.2555 22.1332 10.2555 22.587C10.2555 23.0407 10.6208 23.4083 11.0715 23.409C11.5215 23.409 11.8875 23.0407 11.8875 22.587C11.8875 22.1332 11.5223 21.7658 11.0715 21.765ZM23.4113 22.7017H26.5755C26.7255 22.7017 26.8665 22.7738 26.991 22.9328C27.1155 23.0917 27.2063 23.334 27.2063 23.6108C27.2063 23.8883 27.1162 24.1313 26.991 24.291C26.8665 24.45 26.7255 24.522 26.5755 24.522H23.4105C23.2605 24.522 23.1195 24.45 22.995 24.291C22.851 24.0938 22.7754 23.8549 22.7797 23.6108C22.7797 23.3333 22.8705 23.0917 22.995 22.9328C23.1195 22.7738 23.2612 22.7017 23.4113 22.7017Z" fill="#FCFCFC"/>
</g>
<defs>
<clipPath id="clip0_1189_547">
<rect width="36" height="36" fill="white"/>
</clipPath>
</defs>
</svg>
