<svg width="60" height="60" viewBox="0 0 60 60" fill="none" xmlns="http://www.w3.org/2000/svg">
<g filter="url(#filter0_b_0_379)">
<circle cx="30" cy="30" r="30" fill="#FD6464" fill-opacity="0.1"/>
</g>
<path d="M34.7812 32.7969C36.1979 33.2865 37.474 33.9688 38.6094 34.8438C39.7448 35.7188 40.7135 36.7396 41.5156 37.9062C42.3177 39.0729 42.9323 40.3385 43.3594 41.7031C43.7865 43.0677 44 44.5 44 46H42C42 44.2917 41.6979 42.7083 41.0938 41.25C40.4896 39.7917 39.6458 38.5208 38.5625 37.4375C37.4792 36.3542 36.2135 35.5156 34.7656 34.9219C33.3177 34.3281 31.7292 34.0208 30 34C28.8854 34 27.8125 34.1406 26.7812 34.4219C25.75 34.7031 24.7917 35.099 23.9062 35.6094C23.0208 36.1198 22.2135 36.7396 21.4844 37.4688C20.7552 38.1979 20.1354 39.0052 19.625 39.8906C19.1146 40.776 18.7135 41.7396 18.4219 42.7812C18.1302 43.8229 17.9896 44.8958 18 46H16C16 44.5 16.2188 43.0677 16.6562 41.7031C17.0938 40.3385 17.7135 39.0781 18.5156 37.9219C19.3177 36.7656 20.2865 35.7552 21.4219 34.8906C22.5573 34.026 23.8333 33.3333 25.25 32.8125C24.4375 32.375 23.7083 31.8438 23.0625 31.2188C22.4167 30.5938 21.8698 29.901 21.4219 29.1406C20.974 28.3802 20.625 27.5625 20.375 26.6875C20.125 25.8125 20 24.9167 20 24C20 22.6146 20.2604 21.3177 20.7812 20.1094C21.3021 18.901 22.0156 17.8385 22.9219 16.9219C23.8281 16.0052 24.8854 15.2917 26.0938 14.7812C27.3021 14.2708 28.6042 14.0104 30 14C31.3854 14 32.6823 14.2604 33.8906 14.7812C35.099 15.3021 36.1615 16.0156 37.0781 16.9219C37.9948 17.8281 38.7083 18.8854 39.2188 20.0938C39.7292 21.3021 39.9896 22.6042 40 24C40 24.9167 39.8802 25.8073 39.6406 26.6719C39.401 27.5365 39.0521 28.349 38.5938 29.1094C38.1354 29.8698 37.5885 30.5625 36.9531 31.1875C36.3177 31.8125 35.5938 32.349 34.7812 32.7969ZM22 24C22 25.1042 22.2083 26.1406 22.625 27.1094C23.0417 28.0781 23.6146 28.9219 24.3438 29.6406C25.0729 30.3594 25.9219 30.9323 26.8906 31.3594C27.8594 31.7865 28.8958 32 30 32C31.1042 32 32.1406 31.7917 33.1094 31.375C34.0781 30.9583 34.9219 30.3854 35.6406 29.6562C36.3594 28.9271 36.9323 28.0781 37.3594 27.1094C37.7865 26.1406 38 25.1042 38 24C38 22.8958 37.7917 21.8594 37.375 20.8906C36.9583 19.9219 36.3854 19.0781 35.6562 18.3594C34.9271 17.6406 34.0781 17.0677 33.1094 16.6406C32.1406 16.2135 31.1042 16 30 16C28.8958 16 27.8594 16.2083 26.8906 16.625C25.9219 17.0417 25.0781 17.6146 24.3594 18.3438C23.6406 19.0729 23.0677 19.9219 22.6406 20.8906C22.2135 21.8594 22 22.8958 22 24Z" fill="#FD6464"/>
<defs>
<filter id="filter0_b_0_379" x="-20" y="-20" width="100" height="100" filterUnits="userSpaceOnUse" color-interpolation-filters="sRGB">
<feFlood flood-opacity="0" result="BackgroundImageFix"/>
<feGaussianBlur in="BackgroundImageFix" stdDeviation="10"/>
<feComposite in2="SourceAlpha" operator="in" result="effect1_backgroundBlur_0_379"/>
<feBlend mode="normal" in="SourceGraphic" in2="effect1_backgroundBlur_0_379" result="shape"/>
</filter>
</defs>
</svg>
