<svg width="207" height="688" viewBox="0 0 207 688" fill="none" xmlns="http://www.w3.org/2000/svg">
<g opacity="0.5">
<path d="M-195.355 373.452C-192.109 311.857 -156.354 253.756 -97.2359 225.087C-38.1176 196.417 28.9382 204.661 78.291 240.749" stroke="url(#paint0_linear_0_416)" stroke-width="2" stroke-miterlimit="10"/>
<path d="M78.2978 240.711C68.5432 228.751 56.7806 218.076 43.2503 209.098C0.787263 180.927 -57.3457 175.247 -108.949 200.274C-160.552 225.301 -192.67 274.752 -197.681 325.948C-199.277 342.262 -198.46 358.245 -195.396 373.45" stroke="url(#paint1_linear_0_416)" stroke-width="2" stroke-miterlimit="10"/>
<path d="M78.3037 240.672C70.7923 225.522 60.3298 211.274 46.9807 198.701C4.78535 158.927 -62.1894 147.09 -120.663 175.451C-179.136 203.812 -212.075 264.109 -208.009 322.377C-206.719 340.808 -202.351 358.012 -195.434 373.441" stroke="url(#paint2_linear_0_416)" stroke-width="2" stroke-miterlimit="10"/>
<path d="M78.3056 240.643C73.0418 222.31 63.8803 204.47 50.7055 188.304C8.81626 136.889 -67.0493 118.925 -132.386 150.616C-197.723 182.307 -231.547 253.466 -218.344 318.795C-214.197 339.341 -206.247 357.768 -195.472 373.428" stroke="url(#paint3_linear_0_416)" stroke-width="2" stroke-miterlimit="10"/>
<path d="M78.305 240.614C75.2859 219.09 67.4778 197.634 54.4295 177.907C12.9998 114.748 -71.9049 90.7637 -144.105 125.785C-216.305 160.806 -251.175 242.888 -228.671 315.217C-221.703 337.893 -210.135 357.525 -195.501 373.416" stroke="url(#paint4_linear_0_416)" stroke-width="2" stroke-miterlimit="10"/>
<path d="M78.3016 240.589C77.5277 215.873 71.0286 190.84 58.1518 167.512C17.0558 92.7256 -76.7575 62.6116 -155.821 100.962C-234.884 139.313 -270.627 232.279 -238.992 311.645C-229.16 336.45 -214.016 357.29 -195.523 373.41" stroke="url(#paint5_linear_0_416)" stroke-width="2" stroke-miterlimit="10"/>
<path d="M78.2952 240.566C79.7595 212.663 74.577 184.048 61.872 157.12C21.103 70.7085 -81.6076 34.4501 -167.541 76.1335C-253.474 117.817 -290.086 221.656 -249.317 308.067C-236.615 334.989 -217.892 357.044 -195.55 373.39" stroke="url(#paint6_linear_0_416)" stroke-width="2" stroke-miterlimit="10"/>
<path d="M-164.503 281.156C-103.317 284.043 -45.8049 319.809 -17.693 379.379C10.419 438.948 1.79897 506.784 -34.3786 556.888" stroke="url(#paint7_linear_0_416)" stroke-width="2" stroke-miterlimit="10"/>
<path d="M-34.4203 556.883C-22.478 546.95 -11.7982 534.996 -2.79255 521.267C25.4646 478.181 31.4806 419.407 6.95335 367.429C-17.5739 315.451 -66.4872 283.318 -117.309 278.584C-133.504 277.077 -149.386 278.006 -164.509 281.199" stroke="url(#paint8_linear_0_416)" stroke-width="2" stroke-miterlimit="10"/>
<path d="M-34.4548 556.875C-19.364 549.19 -5.14973 538.53 7.42123 524.965C47.1856 482.087 59.3717 414.361 31.5895 355.481C3.80724 296.601 -55.85 263.721 -113.731 268.203C-132.041 269.625 -149.15 274.149 -164.515 281.235" stroke="url(#paint9_linear_0_416)" stroke-width="2" stroke-miterlimit="10"/>
<path d="M-34.4855 556.875C-16.2542 551.44 1.51216 542.074 17.6441 528.665C68.9523 486.039 87.2637 409.309 56.23 343.536C25.1963 277.762 -45.2168 244.067 -110.147 257.822C-130.567 262.142 -148.909 270.29 -164.522 281.272" stroke="url(#paint10_linear_0_416)" stroke-width="2" stroke-miterlimit="10"/>
<path d="M-34.5118 556.874C-13.1327 553.687 8.20998 545.665 27.8706 532.363C90.8065 490.13 115.157 404.254 80.8716 331.586C46.5859 258.919 -34.6421 224.245 -106.563 247.434C-129.112 254.615 -148.668 266.422 -164.532 281.3" stroke="url(#paint11_linear_0_416)" stroke-width="2" stroke-miterlimit="10"/>
<path d="M-34.5365 556.878C-10.0097 555.937 14.8697 549.214 38.0982 536.065C112.565 494.096 143.05 399.201 105.512 319.639C67.9745 240.077 -24.0318 204.598 -102.981 237.045C-127.655 247.131 -148.43 262.554 -164.544 281.326" stroke="url(#paint12_linear_0_416)" stroke-width="2" stroke-miterlimit="10"/>
<path d="M-34.5604 556.885C-6.89339 558.194 21.5302 552.766 48.319 539.772C134.305 498.063 170.939 394.16 130.145 307.696C89.3513 221.232 -13.4258 184.944 -99.4116 226.652C-126.2 239.647 -148.201 258.688 -164.562 281.343" stroke="url(#paint13_linear_0_416)" stroke-width="2" stroke-miterlimit="10"/>
<path d="M-346.17 443.581C-341.33 462.038 -332.586 480.089 -319.798 496.572C-279.124 548.97 -203.703 568.721 -137.654 538.574C-71.605 508.427 -36.1479 438.072 -47.8305 372.442C-51.5039 351.804 -59.0223 333.194 -69.4301 317.274" stroke="url(#paint14_linear_0_416)" stroke-width="2" stroke-miterlimit="10"/>
<path d="M-346.168 443.609C-343.651 465.204 -336.341 486.838 -323.763 506.876C-283.819 571.003 -199.506 596.983 -126.517 563.669C-53.5278 530.356 -16.7759 449.104 -37.5946 376.248C-44.0321 353.405 -55.1459 333.506 -69.4035 317.278" stroke="url(#paint15_linear_0_416)" stroke-width="2" stroke-miterlimit="10"/>
<path d="M-346.163 443.632C-345.964 468.362 -340.049 493.543 -327.72 517.173C-288.377 592.92 -195.306 625.249 -115.377 588.77C-35.4476 552.291 2.43318 460.177 -27.3539 380.068C-36.6113 355.039 -51.2621 333.84 -69.3769 317.29" stroke="url(#paint16_linear_0_416)" stroke-width="2" stroke-miterlimit="10"/>
<path d="M-346.157 443.653C-348.275 471.517 -343.754 500.252 -331.683 527.471C-292.934 614.836 -191.106 653.514 -104.241 613.862C-17.3748 574.21 21.6305 471.245 -17.1185 383.88C-29.1886 356.661 -47.3914 334.17 -69.3489 317.29" stroke="url(#paint17_linear_0_416)" stroke-width="2" stroke-miterlimit="10"/>
</g>
<defs>
<linearGradient id="paint0_linear_0_416" x1="39.5869" y1="158.735" x2="78.7862" y2="247.824" gradientUnits="userSpaceOnUse">
<stop stop-color="#0C71CE"/>
<stop offset="0.515625" stop-color="#0085FF" stop-opacity="0.6"/>
<stop offset="1" stop-color="#6FBAFF" stop-opacity="0.81"/>
</linearGradient>
<linearGradient id="paint1_linear_0_416" x1="27.8984" y1="133.905" x2="77.6336" y2="250.443" gradientUnits="userSpaceOnUse">
<stop stop-color="#0C71CE"/>
<stop offset="0.515625" stop-color="#0085FF" stop-opacity="0.6"/>
<stop offset="1" stop-color="#6FBAFF" stop-opacity="0.81"/>
</linearGradient>
<linearGradient id="paint2_linear_0_416" x1="16.2061" y1="109.066" x2="75.8567" y2="253.267" gradientUnits="userSpaceOnUse">
<stop stop-color="#0C71CE"/>
<stop offset="0.515625" stop-color="#0085FF" stop-opacity="0.6"/>
<stop offset="1" stop-color="#6FBAFF" stop-opacity="0.81"/>
</linearGradient>
<linearGradient id="paint3_linear_0_416" x1="6.15918" y1="83.4153" x2="75.2508" y2="255.433" gradientUnits="userSpaceOnUse">
<stop stop-color="#0C71CE"/>
<stop offset="0.515625" stop-color="#0085FF" stop-opacity="0.6"/>
<stop offset="1" stop-color="#6FBAFF" stop-opacity="0.81"/>
</linearGradient>
<linearGradient id="paint4_linear_0_416" x1="-1.1153" y1="56.4269" x2="77.1943" y2="256.294" gradientUnits="userSpaceOnUse">
<stop stop-color="#0C71CE"/>
<stop offset="0.515625" stop-color="#0085FF" stop-opacity="0.6"/>
<stop offset="1" stop-color="#6FBAFF" stop-opacity="0.81"/>
</linearGradient>
<linearGradient id="paint5_linear_0_416" x1="-6.94824" y1="28.7498" x2="80.4061" y2="256.486" gradientUnits="userSpaceOnUse">
<stop stop-color="#0C71CE"/>
<stop offset="0.515625" stop-color="#0085FF" stop-opacity="0.6"/>
<stop offset="1" stop-color="#6FBAFF" stop-opacity="0.81"/>
</linearGradient>
<linearGradient id="paint6_linear_0_416" x1="-11.9463" y1="0.659668" x2="84.319" y2="256.291" gradientUnits="userSpaceOnUse">
<stop stop-color="#0C71CE"/>
<stop offset="0.515625" stop-color="#0085FF" stop-opacity="0.6"/>
<stop offset="1" stop-color="#6FBAFF" stop-opacity="0.81"/>
</linearGradient>
<linearGradient id="paint7_linear_0_416" x1="-82.7549" y1="241.512" x2="-66.0459" y2="544.336" gradientUnits="userSpaceOnUse">
<stop stop-color="#0C71CE"/>
<stop offset="0.515625" stop-color="#0085FF" stop-opacity="0.6"/>
<stop offset="1" stop-color="#6FBAFF" stop-opacity="0.81"/>
</linearGradient>
<linearGradient id="paint8_linear_0_416" x1="-58.0911" y1="229.588" x2="-14.205" y2="539.151" gradientUnits="userSpaceOnUse">
<stop stop-color="#0C71CE"/>
<stop offset="0.515625" stop-color="#0085FF" stop-opacity="0.6"/>
<stop offset="1" stop-color="#6FBAFF" stop-opacity="0.81"/>
</linearGradient>
<linearGradient id="paint9_linear_0_416" x1="-33.4404" y1="217.661" x2="28.6264" y2="529.06" gradientUnits="userSpaceOnUse">
<stop stop-color="#0C71CE"/>
<stop offset="0.515625" stop-color="#0085FF" stop-opacity="0.6"/>
<stop offset="1" stop-color="#6FBAFF" stop-opacity="0.81"/>
</linearGradient>
<linearGradient id="paint10_linear_0_416" x1="-9.57611" y1="204.065" x2="65.3519" y2="519.323" gradientUnits="userSpaceOnUse">
<stop stop-color="#0C71CE"/>
<stop offset="0.515625" stop-color="#0085FF" stop-opacity="0.6"/>
<stop offset="1" stop-color="#6FBAFF" stop-opacity="0.81"/>
</linearGradient>
<linearGradient id="paint11_linear_0_416" x1="12.9717" y1="187.674" x2="98.2237" y2="512.584" gradientUnits="userSpaceOnUse">
<stop stop-color="#0C71CE"/>
<stop offset="0.515625" stop-color="#0085FF" stop-opacity="0.6"/>
<stop offset="1" stop-color="#6FBAFF" stop-opacity="0.81"/>
</linearGradient>
<linearGradient id="paint12_linear_0_416" x1="34.8301" y1="169.827" x2="129.278" y2="507.546" gradientUnits="userSpaceOnUse">
<stop stop-color="#0C71CE"/>
<stop offset="0.515625" stop-color="#0085FF" stop-opacity="0.6"/>
<stop offset="1" stop-color="#6FBAFF" stop-opacity="0.81"/>
</linearGradient>
<linearGradient id="paint13_linear_0_416" x1="56.2783" y1="151.132" x2="159.339" y2="503.554" gradientUnits="userSpaceOnUse">
<stop stop-color="#0C71CE"/>
<stop offset="0.515625" stop-color="#0085FF" stop-opacity="0.6"/>
<stop offset="1" stop-color="#6FBAFF" stop-opacity="0.81"/>
</linearGradient>
<linearGradient id="paint14_linear_0_416" x1="-71.2627" y1="310.239" x2="-1.00527" y2="485.886" gradientUnits="userSpaceOnUse">
<stop stop-color="#0C71CE"/>
<stop offset="0.515625" stop-color="#0085FF" stop-opacity="0.6"/>
<stop offset="1" stop-color="#6FBAFF" stop-opacity="0.81"/>
</linearGradient>
<linearGradient id="paint15_linear_0_416" x1="-67.2568" y1="308.321" x2="12.1514" y2="511.818" gradientUnits="userSpaceOnUse">
<stop stop-color="#0C71CE"/>
<stop offset="0.515625" stop-color="#0085FF" stop-opacity="0.6"/>
<stop offset="1" stop-color="#6FBAFF" stop-opacity="0.81"/>
</linearGradient>
<linearGradient id="paint16_linear_0_416" x1="-61.7637" y1="305.68" x2="26.6369" y2="537.059" gradientUnits="userSpaceOnUse">
<stop stop-color="#0C71CE"/>
<stop offset="0.515625" stop-color="#0085FF" stop-opacity="0.6"/>
<stop offset="1" stop-color="#6FBAFF" stop-opacity="0.81"/>
</linearGradient>
<linearGradient id="paint17_linear_0_416" x1="-55.4043" y1="302.618" x2="41.8584" y2="561.886" gradientUnits="userSpaceOnUse">
<stop stop-color="#0C71CE"/>
<stop offset="0.515625" stop-color="#0085FF" stop-opacity="0.6"/>
<stop offset="1" stop-color="#6FBAFF" stop-opacity="0.81"/>
</linearGradient>
</defs>
</svg>
