<svg width="36" height="36" viewBox="0 0 36 36" fill="none" xmlns="http://www.w3.org/2000/svg">
<path d="M15.75 18.6638L12.8362 15.75L11.25 17.3362L15.75 21.8363L24.75 12.8362L23.1637 11.25L15.75 18.6638Z" fill="#FCFCFC"/>
<path d="M18 33.75L11.052 30.0454C9.07126 28.9916 7.41485 27.4183 6.26054 25.4944C5.10624 23.5705 4.49762 21.3686 4.50001 19.125V4.5C4.5006 3.90345 4.73785 3.3315 5.15967 2.90967C5.5815 2.48784 6.15345 2.2506 6.75001 2.25H29.25C29.8466 2.2506 30.4185 2.48784 30.8403 2.90967C31.2622 3.3315 31.4994 3.90345 31.5 4.5V19.125C31.5024 21.3686 30.8938 23.5705 29.7395 25.4944C28.5852 27.4183 26.9288 28.9916 24.948 30.0454L18 33.75ZM6.75001 4.5V19.125C6.74814 20.9608 7.24625 22.7624 8.19087 24.3365C9.13548 25.9106 10.4909 27.1977 12.1118 28.0597L18 31.1996L23.8883 28.0609C25.5092 27.1988 26.8648 25.9115 27.8094 24.3372C28.7541 22.7628 29.2521 20.961 29.25 19.125V4.5H6.75001Z" fill="#FCFCFC"/>
</svg>
