<svg width="709" height="703" viewBox="0 0 709 703" fill="none" xmlns="http://www.w3.org/2000/svg">
<g opacity="0.5">
<path d="M318.731 293.409C380.335 290.353 441.782 319.993 476.333 375.878C510.885 431.763 509.526 499.309 478.662 552.087" stroke="url(#paint0_linear_0_166)" stroke-width="2" stroke-miterlimit="10"/>
<path d="M478.7 552.089C489.602 541.165 499.021 528.374 506.572 513.999C530.264 468.883 529.982 410.474 499.821 361.694C469.659 312.914 417.19 286.008 365.75 286.246C349.358 286.324 333.541 288.768 318.729 293.366" stroke="url(#paint1_linear_0_166)" stroke-width="2" stroke-miterlimit="10"/>
<path d="M478.739 552.091C493.044 543.073 506.149 531.211 517.296 516.649C552.556 470.616 557.498 402.783 523.319 347.508C489.141 292.233 425.797 265.619 368.249 275.608C350.045 278.772 333.377 284.873 318.734 293.328" stroke="url(#paint2_linear_0_166)" stroke-width="2" stroke-miterlimit="10"/>
<path d="M478.769 552.09C496.469 544.983 513.28 534.05 528.018 519.294C574.891 472.378 585.021 395.075 546.829 333.312C508.637 271.55 434.398 245.163 370.757 264.962C350.742 271.184 333.222 280.973 318.743 293.289" stroke="url(#paint3_linear_0_166)" stroke-width="2" stroke-miterlimit="10"/>
<path d="M478.797 552.086C499.901 546.887 520.448 536.93 538.741 521.937C597.343 474.28 612.54 387.371 570.335 319.121C528.13 250.871 442.919 224.557 373.263 254.324C351.416 263.569 333.067 277.081 318.752 293.259" stroke="url(#paint4_linear_0_166)" stroke-width="2" stroke-miterlimit="10"/>
<path d="M478.822 552.08C503.329 548.789 527.569 539.769 549.462 524.579C619.664 476.067 640.05 379.671 593.832 304.934C547.615 230.196 451.487 204.125 375.763 243.692C352.091 256.004 332.905 273.195 318.755 293.237" stroke="url(#paint5_linear_0_166)" stroke-width="2" stroke-miterlimit="10"/>
<path d="M478.844 552.072C506.751 550.681 534.687 542.607 560.179 527.22C641.98 477.848 667.569 371.973 617.336 290.742C567.102 209.51 460.069 183.684 378.269 233.056C352.784 248.438 332.754 269.315 318.772 293.207" stroke="url(#paint6_linear_0_166)" stroke-width="2" stroke-miterlimit="10"/>
<path d="M413.693 314.683C417.063 375.844 387.352 436.705 330.962 470.748C274.572 504.791 206.21 503.137 152.676 472.261" stroke="url(#paint7_linear_0_166)" stroke-width="2" stroke-miterlimit="10"/>
<path d="M152.677 472.219C163.777 483.085 176.758 492.49 191.334 500.048C237.078 523.761 296.159 523.749 345.364 494.047C394.568 464.344 421.543 412.407 421.066 361.368C420.913 345.103 418.369 329.399 413.649 314.681" stroke="url(#paint8_linear_0_166)" stroke-width="2" stroke-miterlimit="10"/>
<path d="M152.682 472.183C161.866 486.411 173.921 499.464 188.698 510.585C235.409 545.767 304.025 550.979 359.763 517.335C415.501 483.69 442.123 420.989 431.758 363.868C428.476 345.799 422.23 329.24 413.613 314.679" stroke="url(#paint9_linear_0_166)" stroke-width="2" stroke-miterlimit="10"/>
<path d="M152.679 472.153C159.945 489.735 171.075 506.453 186.06 521.132C233.698 567.824 311.896 578.211 374.16 540.628C436.424 503.046 462.759 429.562 442.451 366.374C436.07 346.502 426.094 329.087 413.576 314.675" stroke="url(#paint10_linear_0_166)" stroke-width="2" stroke-miterlimit="10"/>
<path d="M152.677 472.126C158.029 493.069 168.187 513.482 183.425 531.682C231.859 589.981 319.771 605.443 388.562 563.922C457.352 522.401 483.557 438.059 453.151 368.879C443.706 347.181 429.965 328.931 413.547 314.668" stroke="url(#paint11_linear_0_166)" stroke-width="2" stroke-miterlimit="10"/>
<path d="M152.67 472.102C156.109 496.405 165.335 520.469 180.786 542.234C230.134 612.03 327.644 632.675 402.961 587.215C478.278 541.755 504.184 446.609 463.851 371.382C451.3 347.866 433.838 328.773 413.52 314.658" stroke="url(#paint12_linear_0_166)" stroke-width="2" stroke-miterlimit="10"/>
<path d="M152.661 472.08C154.182 499.736 162.481 527.457 178.141 552.78C228.405 634.062 335.504 659.904 417.355 610.501C499.205 561.098 524.818 455.155 474.553 373.873C458.894 348.55 437.707 328.607 413.5 314.643" stroke="url(#paint13_linear_0_166)" stroke-width="2" stroke-miterlimit="10"/>
<path d="M387.487 412.831C325.824 414.455 265.084 383.399 231.858 326.74C198.633 270.081 201.583 202.579 233.691 150.545" stroke="url(#paint14_linear_0_166)" stroke-width="2" stroke-miterlimit="10"/>
<path d="M233.643 150.536C222.485 161.203 212.76 173.765 204.879 187.967C180.122 232.518 179.022 290.909 208.034 340.375C237.039 389.845 288.86 417.949 340.307 418.906C356.703 419.209 372.564 417.133 387.485 412.881" stroke="url(#paint15_linear_0_166)" stroke-width="2" stroke-miterlimit="10"/>
<path d="M233.61 150.535C219.098 159.218 205.717 170.775 194.221 185.069C157.882 230.267 151.333 297.969 184.199 354.009C217.065 410.049 279.78 438.128 337.552 429.481C355.827 426.745 372.637 421.028 387.48 412.912" stroke="url(#paint16_linear_0_166)" stroke-width="2" stroke-miterlimit="10"/>
<path d="M233.58 150.535C215.713 157.234 198.648 167.774 183.557 182.177C135.582 227.985 123.629 305.027 160.357 367.656C197.086 430.284 270.692 458.378 334.787 440.06C354.943 434.3 372.688 424.922 387.464 412.944" stroke="url(#paint17_linear_0_166)" stroke-width="2" stroke-miterlimit="10"/>
<path d="M233.553 150.54C212.327 155.247 191.552 164.727 172.902 179.283C113.185 225.561 95.9432 312.085 136.53 381.294C177.116 450.504 261.694 478.774 332.045 450.63C354.112 441.896 372.773 428.81 387.463 412.971" stroke="url(#paint18_linear_0_166)" stroke-width="2" stroke-miterlimit="10"/>
<path d="M233.53 150.547C208.95 153.269 184.504 161.721 162.255 176.398C90.9168 223.264 68.2527 319.147 112.697 394.937C157.14 470.728 252.639 499.013 329.29 461.207C353.244 449.445 372.838 432.707 387.454 412.998" stroke="url(#paint19_linear_0_166)" stroke-width="2" stroke-miterlimit="10"/>
<path d="M233.51 150.556C205.575 151.292 177.452 158.722 151.606 173.506C68.6508 220.967 40.564 326.21 88.872 408.576C137.18 490.943 243.588 519.239 326.543 471.779C352.389 456.995 372.905 436.592 387.456 413.027" stroke="url(#paint20_linear_0_166)" stroke-width="2" stroke-miterlimit="10"/>
<path d="M295.391 387.57C292.021 326.41 321.733 265.548 378.123 231.505C434.513 197.462 502.868 199.12 556.408 229.993" stroke="url(#paint21_linear_0_166)" stroke-width="2" stroke-miterlimit="10"/>
<path d="M556.408 230.035C545.308 219.168 532.327 209.764 517.751 202.206C472.007 178.492 412.926 178.504 363.722 208.207C314.511 237.914 287.542 289.846 288.019 340.886C288.172 357.15 290.717 372.855 295.436 387.573" stroke="url(#paint22_linear_0_166)" stroke-width="2" stroke-miterlimit="10"/>
<path d="M556.404 230.07C547.219 215.842 535.165 202.79 520.388 191.668C473.677 156.486 405.061 151.274 349.323 184.919C293.585 218.563 266.963 281.264 277.327 338.386C280.61 356.455 286.856 373.014 295.473 387.575" stroke="url(#paint23_linear_0_166)" stroke-width="2" stroke-miterlimit="10"/>
<path d="M556.402 230.1C549.136 212.519 538.005 195.801 523.021 181.121C475.383 134.43 397.184 124.043 334.921 161.625C272.657 199.208 246.322 272.691 266.63 335.879C273.011 355.752 282.987 373.167 295.505 387.578" stroke="url(#paint24_linear_0_166)" stroke-width="2" stroke-miterlimit="10"/>
<path d="M556.408 230.127C551.056 209.185 540.898 188.772 525.66 170.571C477.226 112.273 389.313 96.8108 320.523 138.332C251.733 179.853 225.528 264.195 255.934 333.375C265.378 355.072 279.119 373.322 295.537 387.585" stroke="url(#paint25_linear_0_166)" stroke-width="2" stroke-miterlimit="10"/>
<path d="M556.417 230.151C552.978 205.848 543.752 181.785 528.301 160.019C478.953 90.2232 381.443 69.5788 306.126 115.039C230.809 160.498 204.903 255.644 245.236 330.871C257.787 354.387 275.249 373.48 295.567 387.595" stroke="url(#paint26_linear_0_166)" stroke-width="2" stroke-miterlimit="10"/>
<path d="M556.423 230.174C554.894 202.522 546.602 174.796 530.942 149.473C480.678 68.1913 373.579 42.3492 291.729 91.7522C209.878 141.155 184.272 247.094 234.537 328.376C250.197 353.699 271.383 373.642 295.59 387.606" stroke="url(#paint27_linear_0_166)" stroke-width="2" stroke-miterlimit="10"/>
</g>
<defs>
<linearGradient id="paint0_linear_0_166" x1="556.299" y1="505.217" x2="471.674" y2="553.301" gradientUnits="userSpaceOnUse">
<stop stop-color="#0C71CE"/>
<stop offset="0.515625" stop-color="#0085FF" stop-opacity="0.6"/>
<stop offset="1" stop-color="#6FBAFF" stop-opacity="0.81"/>
</linearGradient>
<linearGradient id="paint1_linear_0_166" x1="579.807" y1="491.055" x2="468.951" y2="552.421" gradientUnits="userSpaceOnUse">
<stop stop-color="#0C71CE"/>
<stop offset="0.515625" stop-color="#0085FF" stop-opacity="0.6"/>
<stop offset="1" stop-color="#6FBAFF" stop-opacity="0.81"/>
</linearGradient>
<linearGradient id="paint2_linear_0_166" x1="603.322" y1="476.889" x2="465.961" y2="550.941" gradientUnits="userSpaceOnUse">
<stop stop-color="#0C71CE"/>
<stop offset="0.515625" stop-color="#0085FF" stop-opacity="0.6"/>
<stop offset="1" stop-color="#6FBAFF" stop-opacity="0.81"/>
</linearGradient>
<linearGradient id="paint3_linear_0_166" x1="627.815" y1="464.279" x2="463.744" y2="550.561" gradientUnits="userSpaceOnUse">
<stop stop-color="#0C71CE"/>
<stop offset="0.515625" stop-color="#0085FF" stop-opacity="0.6"/>
<stop offset="1" stop-color="#6FBAFF" stop-opacity="0.81"/>
</linearGradient>
<linearGradient id="paint4_linear_0_166" x1="653.92" y1="454.288" x2="463.085" y2="552.581" gradientUnits="userSpaceOnUse">
<stop stop-color="#0C71CE"/>
<stop offset="0.515625" stop-color="#0085FF" stop-opacity="0.6"/>
<stop offset="1" stop-color="#6FBAFF" stop-opacity="0.81"/>
</linearGradient>
<linearGradient id="paint5_linear_0_166" x1="680.857" y1="445.661" x2="463.223" y2="555.795" gradientUnits="userSpaceOnUse">
<stop stop-color="#0C71CE"/>
<stop offset="0.515625" stop-color="#0085FF" stop-opacity="0.6"/>
<stop offset="1" stop-color="#6FBAFF" stop-opacity="0.81"/>
</linearGradient>
<linearGradient id="paint6_linear_0_166" x1="708.291" y1="437.824" x2="463.815" y2="559.669" gradientUnits="userSpaceOnUse">
<stop stop-color="#0C71CE"/>
<stop offset="0.515625" stop-color="#0085FF" stop-opacity="0.6"/>
<stop offset="1" stop-color="#6FBAFF" stop-opacity="0.81"/>
</linearGradient>
<linearGradient id="paint7_linear_0_166" x1="461.47" y1="391.959" x2="161.932" y2="439.478" gradientUnits="userSpaceOnUse">
<stop stop-color="#0C71CE"/>
<stop offset="0.515625" stop-color="#0085FF" stop-opacity="0.6"/>
<stop offset="1" stop-color="#6FBAFF" stop-opacity="0.81"/>
</linearGradient>
<linearGradient id="paint8_linear_0_166" x1="475.849" y1="415.278" x2="172.38" y2="490.519" gradientUnits="userSpaceOnUse">
<stop stop-color="#0C71CE"/>
<stop offset="0.515625" stop-color="#0085FF" stop-opacity="0.6"/>
<stop offset="1" stop-color="#6FBAFF" stop-opacity="0.81"/>
</linearGradient>
<linearGradient id="paint9_linear_0_166" x1="490.228" y1="438.583" x2="186.788" y2="532.097" gradientUnits="userSpaceOnUse">
<stop stop-color="#0C71CE"/>
<stop offset="0.515625" stop-color="#0085FF" stop-opacity="0.6"/>
<stop offset="1" stop-color="#6FBAFF" stop-opacity="0.81"/>
</linearGradient>
<linearGradient id="paint10_linear_0_166" x1="506.189" y1="460.935" x2="200.221" y2="567.638" gradientUnits="userSpaceOnUse">
<stop stop-color="#0C71CE"/>
<stop offset="0.515625" stop-color="#0085FF" stop-opacity="0.6"/>
<stop offset="1" stop-color="#6FBAFF" stop-opacity="0.81"/>
</linearGradient>
<linearGradient id="paint11_linear_0_166" x1="524.795" y1="481.693" x2="210.279" y2="599.65" gradientUnits="userSpaceOnUse">
<stop stop-color="#0C71CE"/>
<stop offset="0.515625" stop-color="#0085FF" stop-opacity="0.6"/>
<stop offset="1" stop-color="#6FBAFF" stop-opacity="0.81"/>
</linearGradient>
<linearGradient id="paint12_linear_0_166" x1="544.779" y1="501.616" x2="218.459" y2="630.029" gradientUnits="userSpaceOnUse">
<stop stop-color="#0C71CE"/>
<stop offset="0.515625" stop-color="#0085FF" stop-opacity="0.6"/>
<stop offset="1" stop-color="#6FBAFF" stop-opacity="0.81"/>
</linearGradient>
<linearGradient id="paint13_linear_0_166" x1="565.564" y1="521.045" x2="225.497" y2="659.525" gradientUnits="userSpaceOnUse">
<stop stop-color="#0C71CE"/>
<stop offset="0.515625" stop-color="#0085FF" stop-opacity="0.6"/>
<stop offset="1" stop-color="#6FBAFF" stop-opacity="0.81"/>
</linearGradient>
<linearGradient id="paint14_linear_0_166" x1="393.58" y1="409.153" x2="305.544" y2="459.005" gradientUnits="userSpaceOnUse">
<stop stop-color="#0C71CE"/>
<stop offset="0.515625" stop-color="#0085FF" stop-opacity="0.6"/>
<stop offset="1" stop-color="#6FBAFF" stop-opacity="0.81"/>
</linearGradient>
<linearGradient id="paint15_linear_0_166" x1="393.58" y1="409.202" x2="279.287" y2="472.252" gradientUnits="userSpaceOnUse">
<stop stop-color="#0C71CE"/>
<stop offset="0.515625" stop-color="#0085FF" stop-opacity="0.6"/>
<stop offset="1" stop-color="#6FBAFF" stop-opacity="0.81"/>
</linearGradient>
<linearGradient id="paint16_linear_0_166" x1="393.576" y1="409.233" x2="252.744" y2="484.89" gradientUnits="userSpaceOnUse">
<stop stop-color="#0C71CE"/>
<stop offset="0.515625" stop-color="#0085FF" stop-opacity="0.6"/>
<stop offset="1" stop-color="#6FBAFF" stop-opacity="0.81"/>
</linearGradient>
<linearGradient id="paint17_linear_0_166" x1="394.275" y1="410.404" x2="226.713" y2="498.216" gradientUnits="userSpaceOnUse">
<stop stop-color="#0C71CE"/>
<stop offset="0.515625" stop-color="#0085FF" stop-opacity="0.6"/>
<stop offset="1" stop-color="#6FBAFF" stop-opacity="0.81"/>
</linearGradient>
<linearGradient id="paint18_linear_0_166" x1="396.592" y1="414.192" x2="202.259" y2="513.949" gradientUnits="userSpaceOnUse">
<stop stop-color="#0C71CE"/>
<stop offset="0.515625" stop-color="#0085FF" stop-opacity="0.6"/>
<stop offset="1" stop-color="#6FBAFF" stop-opacity="0.81"/>
</linearGradient>
<linearGradient id="paint19_linear_0_166" x1="399.779" y1="419.387" x2="178.627" y2="530.934" gradientUnits="userSpaceOnUse">
<stop stop-color="#0C71CE"/>
<stop offset="0.515625" stop-color="#0085FF" stop-opacity="0.6"/>
<stop offset="1" stop-color="#6FBAFF" stop-opacity="0.81"/>
</linearGradient>
<linearGradient id="paint20_linear_0_166" x1="403.474" y1="425.402" x2="155.483" y2="548.61" gradientUnits="userSpaceOnUse">
<stop stop-color="#0C71CE"/>
<stop offset="0.515625" stop-color="#0085FF" stop-opacity="0.6"/>
<stop offset="1" stop-color="#6FBAFF" stop-opacity="0.81"/>
</linearGradient>
<linearGradient id="paint21_linear_0_166" x1="556.408" y1="229.993" x2="256.87" y2="277.511" gradientUnits="userSpaceOnUse">
<stop stop-color="#0C71CE"/>
<stop offset="0.515625" stop-color="#0085FF" stop-opacity="0.6"/>
<stop offset="1" stop-color="#6FBAFF" stop-opacity="0.81"/>
</linearGradient>
<linearGradient id="paint22_linear_0_166" x1="556.408" y1="230.035" x2="252.938" y2="305.276" gradientUnits="userSpaceOnUse">
<stop stop-color="#0C71CE"/>
<stop offset="0.515625" stop-color="#0085FF" stop-opacity="0.6"/>
<stop offset="1" stop-color="#6FBAFF" stop-opacity="0.81"/>
</linearGradient>
<linearGradient id="paint23_linear_0_166" x1="556.404" y1="230.07" x2="252.964" y2="323.585" gradientUnits="userSpaceOnUse">
<stop stop-color="#0C71CE"/>
<stop offset="0.515625" stop-color="#0085FF" stop-opacity="0.6"/>
<stop offset="1" stop-color="#6FBAFF" stop-opacity="0.81"/>
</linearGradient>
<linearGradient id="paint24_linear_0_166" x1="557.982" y1="229.146" x2="252.014" y2="335.849" gradientUnits="userSpaceOnUse">
<stop stop-color="#0C71CE"/>
<stop offset="0.515625" stop-color="#0085FF" stop-opacity="0.6"/>
<stop offset="1" stop-color="#6FBAFF" stop-opacity="0.81"/>
</linearGradient>
<linearGradient id="paint25_linear_0_166" x1="562.209" y1="226.625" x2="247.693" y2="344.583" gradientUnits="userSpaceOnUse">
<stop stop-color="#0C71CE"/>
<stop offset="0.515625" stop-color="#0085FF" stop-opacity="0.6"/>
<stop offset="1" stop-color="#6FBAFF" stop-opacity="0.81"/>
</linearGradient>
<linearGradient id="paint26_linear_0_166" x1="567.81" y1="223.274" x2="241.49" y2="351.687" gradientUnits="userSpaceOnUse">
<stop stop-color="#0C71CE"/>
<stop offset="0.515625" stop-color="#0085FF" stop-opacity="0.6"/>
<stop offset="1" stop-color="#6FBAFF" stop-opacity="0.81"/>
</linearGradient>
<linearGradient id="paint27_linear_0_166" x1="574.209" y1="219.438" x2="234.15" y2="357.916" gradientUnits="userSpaceOnUse">
<stop stop-color="#0C71CE"/>
<stop offset="0.515625" stop-color="#0085FF" stop-opacity="0.6"/>
<stop offset="1" stop-color="#6FBAFF" stop-opacity="0.81"/>
</linearGradient>
</defs>
</svg>
