<svg width="201" height="688" viewBox="0 0 201 688" fill="none" xmlns="http://www.w3.org/2000/svg">
<g opacity="0.5">
<path d="M-201.355 373.452C-198.109 311.857 -162.354 253.756 -103.236 225.087C-44.1176 196.417 22.9382 204.661 72.291 240.749" stroke="url(#paint0_linear_0_724)" stroke-width="2" stroke-miterlimit="10"/>
<path d="M72.2978 240.711C62.5432 228.751 50.7806 218.076 37.2503 209.098C-5.21274 180.927 -63.3457 175.247 -114.949 200.274C-166.552 225.301 -198.67 274.752 -203.681 325.948C-205.277 342.262 -204.46 358.245 -201.396 373.45" stroke="url(#paint1_linear_0_724)" stroke-width="2" stroke-miterlimit="10"/>
<path d="M72.3037 240.672C64.7923 225.522 54.3298 211.274 40.9807 198.701C-1.21465 158.927 -68.1894 147.09 -126.663 175.451C-185.136 203.812 -218.075 264.109 -214.009 322.377C-212.719 340.808 -208.351 358.012 -201.434 373.441" stroke="url(#paint2_linear_0_724)" stroke-width="2" stroke-miterlimit="10"/>
<path d="M72.3056 240.643C67.0418 222.31 57.8803 204.47 44.7055 188.304C2.81626 136.889 -73.0493 118.925 -138.386 150.616C-203.723 182.307 -237.547 253.466 -224.344 318.795C-220.197 339.341 -212.247 357.768 -201.472 373.428" stroke="url(#paint3_linear_0_724)" stroke-width="2" stroke-miterlimit="10"/>
<path d="M72.3049 240.614C69.2859 219.09 61.4777 197.634 48.4294 177.907C6.99972 114.748 -77.9049 90.7637 -150.105 125.785C-222.305 160.806 -257.175 242.888 -234.671 315.217C-227.704 337.893 -216.135 357.525 -201.501 373.416" stroke="url(#paint4_linear_0_724)" stroke-width="2" stroke-miterlimit="10"/>
<path d="M72.3016 240.589C71.5277 215.873 65.0286 190.84 52.1518 167.512C11.0558 92.7256 -82.7575 62.6116 -161.821 100.962C-240.884 139.313 -276.627 232.279 -244.992 311.645C-235.16 336.45 -220.016 357.29 -201.523 373.41" stroke="url(#paint5_linear_0_724)" stroke-width="2" stroke-miterlimit="10"/>
<path d="M72.2952 240.566C73.7595 212.663 68.577 184.048 55.872 157.12C15.103 70.7085 -87.6076 34.4501 -173.541 76.1335C-259.474 117.817 -296.086 221.656 -255.317 308.067C-242.615 334.989 -223.892 357.044 -201.55 373.39" stroke="url(#paint6_linear_0_724)" stroke-width="2" stroke-miterlimit="10"/>
<path d="M-170.502 281.156C-109.317 284.043 -51.8048 319.809 -23.6929 379.379C4.41905 438.948 -4.20097 506.784 -40.3785 556.888" stroke="url(#paint7_linear_0_724)" stroke-width="2" stroke-miterlimit="10"/>
<path d="M-40.4202 556.883C-28.4779 546.95 -17.7981 534.996 -8.79249 521.267C19.4647 478.181 25.4807 419.407 0.953411 367.429C-23.5739 315.451 -72.4872 283.318 -123.309 278.584C-139.504 277.077 -155.386 278.006 -170.509 281.199" stroke="url(#paint8_linear_0_724)" stroke-width="2" stroke-miterlimit="10"/>
<path d="M-40.4548 556.875C-25.364 549.19 -11.1497 538.53 1.42123 524.965C41.1856 482.087 53.3717 414.361 25.5895 355.481C-2.19276 296.601 -61.85 263.721 -119.731 268.203C-138.041 269.625 -155.15 274.149 -170.515 281.235" stroke="url(#paint9_linear_0_724)" stroke-width="2" stroke-miterlimit="10"/>
<path d="M-40.4854 556.875C-22.2541 551.44 -4.48778 542.074 11.6442 528.665C62.9524 486.039 81.2638 409.309 50.2301 343.536C19.1964 277.762 -51.2168 244.067 -116.147 257.822C-136.567 262.142 -154.909 270.29 -170.522 281.272" stroke="url(#paint10_linear_0_724)" stroke-width="2" stroke-miterlimit="10"/>
<path d="M-40.5118 556.874C-19.1327 553.687 2.20998 545.665 21.8706 532.363C84.8065 490.13 109.157 404.254 74.8716 331.586C40.5859 258.919 -40.6421 224.245 -112.563 247.434C-135.112 254.615 -154.668 266.422 -170.532 281.3" stroke="url(#paint11_linear_0_724)" stroke-width="2" stroke-miterlimit="10"/>
<path d="M-40.5365 556.878C-16.0097 555.937 8.86975 549.214 32.0982 536.065C106.565 494.096 137.05 399.201 99.5125 319.639C61.9745 240.077 -30.0318 204.598 -108.981 237.045C-133.655 247.131 -154.43 262.554 -170.544 281.326" stroke="url(#paint12_linear_0_724)" stroke-width="2" stroke-miterlimit="10"/>
<path d="M-40.5604 556.885C-12.8934 558.194 15.5302 552.766 42.319 539.772C128.305 498.063 164.939 394.16 124.145 307.696C83.3513 221.232 -19.4258 184.944 -105.412 226.652C-132.2 239.647 -154.201 258.688 -170.562 281.343" stroke="url(#paint13_linear_0_724)" stroke-width="2" stroke-miterlimit="10"/>
<path d="M-352.17 443.581C-347.33 462.038 -338.586 480.089 -325.798 496.572C-285.124 548.97 -209.703 568.721 -143.654 538.574C-77.605 508.427 -42.1479 438.072 -53.8305 372.442C-57.5039 351.804 -65.0223 333.194 -75.4301 317.274" stroke="url(#paint14_linear_0_724)" stroke-width="2" stroke-miterlimit="10"/>
<path d="M-352.168 443.609C-349.651 465.204 -342.341 486.838 -329.763 506.876C-289.819 571.003 -205.506 596.983 -132.517 563.669C-59.5278 530.356 -22.7759 449.104 -43.5946 376.248C-50.0321 353.405 -61.1459 333.506 -75.4035 317.278" stroke="url(#paint15_linear_0_724)" stroke-width="2" stroke-miterlimit="10"/>
<path d="M-352.163 443.632C-351.964 468.362 -346.049 493.543 -333.72 517.173C-294.377 592.92 -201.306 625.249 -121.377 588.77C-41.4476 552.291 -3.56682 460.177 -33.3539 380.068C-42.6113 355.039 -57.2621 333.84 -75.3769 317.29" stroke="url(#paint16_linear_0_724)" stroke-width="2" stroke-miterlimit="10"/>
<path d="M-352.157 443.653C-354.275 471.517 -349.754 500.252 -337.683 527.471C-298.934 614.836 -197.106 653.514 -110.241 613.862C-23.3748 574.21 15.6305 471.245 -23.1185 383.88C-35.1886 356.661 -53.3914 334.17 -75.3489 317.29" stroke="url(#paint17_linear_0_724)" stroke-width="2" stroke-miterlimit="10"/>
</g>
<defs>
<linearGradient id="paint0_linear_0_724" x1="33.5869" y1="158.735" x2="72.7862" y2="247.824" gradientUnits="userSpaceOnUse">
<stop stop-color="#0C71CE"/>
<stop offset="0.515625" stop-color="#0085FF" stop-opacity="0.6"/>
<stop offset="1" stop-color="#6FBAFF" stop-opacity="0.81"/>
</linearGradient>
<linearGradient id="paint1_linear_0_724" x1="21.8984" y1="133.905" x2="71.6336" y2="250.443" gradientUnits="userSpaceOnUse">
<stop stop-color="#0C71CE"/>
<stop offset="0.515625" stop-color="#0085FF" stop-opacity="0.6"/>
<stop offset="1" stop-color="#6FBAFF" stop-opacity="0.81"/>
</linearGradient>
<linearGradient id="paint2_linear_0_724" x1="10.2061" y1="109.066" x2="69.8567" y2="253.267" gradientUnits="userSpaceOnUse">
<stop stop-color="#0C71CE"/>
<stop offset="0.515625" stop-color="#0085FF" stop-opacity="0.6"/>
<stop offset="1" stop-color="#6FBAFF" stop-opacity="0.81"/>
</linearGradient>
<linearGradient id="paint3_linear_0_724" x1="0.15918" y1="83.4153" x2="69.2508" y2="255.433" gradientUnits="userSpaceOnUse">
<stop stop-color="#0C71CE"/>
<stop offset="0.515625" stop-color="#0085FF" stop-opacity="0.6"/>
<stop offset="1" stop-color="#6FBAFF" stop-opacity="0.81"/>
</linearGradient>
<linearGradient id="paint4_linear_0_724" x1="-7.11536" y1="56.4269" x2="71.1942" y2="256.294" gradientUnits="userSpaceOnUse">
<stop stop-color="#0C71CE"/>
<stop offset="0.515625" stop-color="#0085FF" stop-opacity="0.6"/>
<stop offset="1" stop-color="#6FBAFF" stop-opacity="0.81"/>
</linearGradient>
<linearGradient id="paint5_linear_0_724" x1="-12.9482" y1="28.7498" x2="74.4061" y2="256.486" gradientUnits="userSpaceOnUse">
<stop stop-color="#0C71CE"/>
<stop offset="0.515625" stop-color="#0085FF" stop-opacity="0.6"/>
<stop offset="1" stop-color="#6FBAFF" stop-opacity="0.81"/>
</linearGradient>
<linearGradient id="paint6_linear_0_724" x1="-17.9463" y1="0.659668" x2="78.319" y2="256.291" gradientUnits="userSpaceOnUse">
<stop stop-color="#0C71CE"/>
<stop offset="0.515625" stop-color="#0085FF" stop-opacity="0.6"/>
<stop offset="1" stop-color="#6FBAFF" stop-opacity="0.81"/>
</linearGradient>
<linearGradient id="paint7_linear_0_724" x1="-88.7549" y1="241.512" x2="-72.0458" y2="544.336" gradientUnits="userSpaceOnUse">
<stop stop-color="#0C71CE"/>
<stop offset="0.515625" stop-color="#0085FF" stop-opacity="0.6"/>
<stop offset="1" stop-color="#6FBAFF" stop-opacity="0.81"/>
</linearGradient>
<linearGradient id="paint8_linear_0_724" x1="-64.0911" y1="229.588" x2="-20.2049" y2="539.151" gradientUnits="userSpaceOnUse">
<stop stop-color="#0C71CE"/>
<stop offset="0.515625" stop-color="#0085FF" stop-opacity="0.6"/>
<stop offset="1" stop-color="#6FBAFF" stop-opacity="0.81"/>
</linearGradient>
<linearGradient id="paint9_linear_0_724" x1="-39.4404" y1="217.661" x2="22.6264" y2="529.06" gradientUnits="userSpaceOnUse">
<stop stop-color="#0C71CE"/>
<stop offset="0.515625" stop-color="#0085FF" stop-opacity="0.6"/>
<stop offset="1" stop-color="#6FBAFF" stop-opacity="0.81"/>
</linearGradient>
<linearGradient id="paint10_linear_0_724" x1="-15.576" y1="204.065" x2="59.3519" y2="519.323" gradientUnits="userSpaceOnUse">
<stop stop-color="#0C71CE"/>
<stop offset="0.515625" stop-color="#0085FF" stop-opacity="0.6"/>
<stop offset="1" stop-color="#6FBAFF" stop-opacity="0.81"/>
</linearGradient>
<linearGradient id="paint11_linear_0_724" x1="6.97168" y1="187.674" x2="92.2237" y2="512.584" gradientUnits="userSpaceOnUse">
<stop stop-color="#0C71CE"/>
<stop offset="0.515625" stop-color="#0085FF" stop-opacity="0.6"/>
<stop offset="1" stop-color="#6FBAFF" stop-opacity="0.81"/>
</linearGradient>
<linearGradient id="paint12_linear_0_724" x1="28.8301" y1="169.827" x2="123.278" y2="507.546" gradientUnits="userSpaceOnUse">
<stop stop-color="#0C71CE"/>
<stop offset="0.515625" stop-color="#0085FF" stop-opacity="0.6"/>
<stop offset="1" stop-color="#6FBAFF" stop-opacity="0.81"/>
</linearGradient>
<linearGradient id="paint13_linear_0_724" x1="50.2783" y1="151.132" x2="153.339" y2="503.554" gradientUnits="userSpaceOnUse">
<stop stop-color="#0C71CE"/>
<stop offset="0.515625" stop-color="#0085FF" stop-opacity="0.6"/>
<stop offset="1" stop-color="#6FBAFF" stop-opacity="0.81"/>
</linearGradient>
<linearGradient id="paint14_linear_0_724" x1="-77.2627" y1="310.239" x2="-7.00527" y2="485.886" gradientUnits="userSpaceOnUse">
<stop stop-color="#0C71CE"/>
<stop offset="0.515625" stop-color="#0085FF" stop-opacity="0.6"/>
<stop offset="1" stop-color="#6FBAFF" stop-opacity="0.81"/>
</linearGradient>
<linearGradient id="paint15_linear_0_724" x1="-73.2568" y1="308.321" x2="6.15143" y2="511.818" gradientUnits="userSpaceOnUse">
<stop stop-color="#0C71CE"/>
<stop offset="0.515625" stop-color="#0085FF" stop-opacity="0.6"/>
<stop offset="1" stop-color="#6FBAFF" stop-opacity="0.81"/>
</linearGradient>
<linearGradient id="paint16_linear_0_724" x1="-67.7637" y1="305.68" x2="20.6369" y2="537.059" gradientUnits="userSpaceOnUse">
<stop stop-color="#0C71CE"/>
<stop offset="0.515625" stop-color="#0085FF" stop-opacity="0.6"/>
<stop offset="1" stop-color="#6FBAFF" stop-opacity="0.81"/>
</linearGradient>
<linearGradient id="paint17_linear_0_724" x1="-61.4043" y1="302.618" x2="35.8584" y2="561.886" gradientUnits="userSpaceOnUse">
<stop stop-color="#0C71CE"/>
<stop offset="0.515625" stop-color="#0085FF" stop-opacity="0.6"/>
<stop offset="1" stop-color="#6FBAFF" stop-opacity="0.81"/>
</linearGradient>
</defs>
</svg>
