<svg width="710" height="703" viewBox="0 0 710 703" fill="none" xmlns="http://www.w3.org/2000/svg">
<g opacity="0.1">
<path d="M319.608 293.411C381.213 290.355 442.659 319.995 477.21 375.88C511.762 431.765 510.403 499.312 479.539 552.089" stroke="url(#paint0_linear_0_13)" stroke-width="2" stroke-miterlimit="10"/>
<path d="M479.577 552.091C490.479 541.167 499.898 528.377 507.449 514.001C531.141 468.885 530.859 410.476 500.698 361.696C470.537 312.916 418.067 286.01 366.627 286.249C350.235 286.326 334.419 288.77 319.606 293.368" stroke="url(#paint1_linear_0_13)" stroke-width="2" stroke-miterlimit="10"/>
<path d="M479.617 552.093C493.921 543.075 507.026 531.213 518.173 516.651C553.433 470.618 558.376 402.785 524.197 347.51C490.018 292.236 426.674 265.621 369.126 275.61C350.922 278.774 334.254 284.875 319.611 293.33" stroke="url(#paint2_linear_0_13)" stroke-width="2" stroke-miterlimit="10"/>
<path d="M479.646 552.093C497.346 544.986 514.157 534.052 528.895 519.296C575.768 472.38 585.898 395.077 547.706 333.315C509.514 271.552 435.275 245.165 371.634 264.965C351.619 271.186 334.099 280.975 319.62 293.291" stroke="url(#paint3_linear_0_13)" stroke-width="2" stroke-miterlimit="10"/>
<path d="M479.674 552.089C500.778 546.889 521.326 536.933 539.618 521.94C598.22 474.282 613.417 387.373 571.212 319.123C529.007 250.873 443.796 224.56 374.14 254.326C352.293 263.571 333.944 277.083 319.629 293.261" stroke="url(#paint4_linear_0_13)" stroke-width="2" stroke-miterlimit="10"/>
<path d="M479.699 552.082C504.207 548.791 528.446 539.771 550.339 524.582C620.542 476.07 640.927 379.673 594.71 304.936C548.492 230.198 452.365 204.127 376.64 243.694C352.968 256.006 333.782 273.198 319.632 293.239" stroke="url(#paint5_linear_0_13)" stroke-width="2" stroke-miterlimit="10"/>
<path d="M479.721 552.074C507.628 550.684 535.564 542.609 561.056 527.222C642.857 477.85 668.446 371.976 618.213 290.744C567.979 209.512 460.946 183.686 379.146 233.059C353.661 248.441 333.631 269.317 319.649 293.209" stroke="url(#paint6_linear_0_13)" stroke-width="2" stroke-miterlimit="10"/>
<path d="M414.571 314.685C417.94 375.846 388.229 436.707 331.839 470.75C275.449 504.793 207.087 503.14 153.554 472.263" stroke="url(#paint7_linear_0_13)" stroke-width="2" stroke-miterlimit="10"/>
<path d="M153.554 472.221C164.654 483.088 177.635 492.492 192.211 500.05C237.955 523.764 297.036 523.751 346.241 494.049C395.445 464.346 422.42 412.41 421.944 361.37C421.79 345.106 419.246 329.401 414.526 314.683" stroke="url(#paint8_linear_0_13)" stroke-width="2" stroke-miterlimit="10"/>
<path d="M153.559 472.185C162.743 486.413 174.798 499.466 189.575 510.587C236.286 545.769 304.902 550.982 360.64 517.337C416.378 483.692 443 420.992 432.635 363.87C429.353 345.801 423.107 329.242 414.49 314.681" stroke="url(#paint9_linear_0_13)" stroke-width="2" stroke-miterlimit="10"/>
<path d="M153.556 472.155C160.822 489.737 171.953 506.455 186.937 521.135C234.575 567.826 312.774 578.213 375.037 540.63C437.301 503.048 463.636 429.564 443.328 366.376C436.947 346.504 426.971 329.089 414.453 314.677" stroke="url(#paint10_linear_0_13)" stroke-width="2" stroke-miterlimit="10"/>
<path d="M153.554 472.129C158.906 493.071 169.064 513.484 184.302 531.685C232.736 589.983 320.649 605.445 389.439 563.924C458.229 522.403 484.434 438.061 454.028 368.881C444.584 347.183 430.843 328.933 414.424 314.67" stroke="url(#paint11_linear_0_13)" stroke-width="2" stroke-miterlimit="10"/>
<path d="M153.547 472.104C156.986 496.407 166.212 520.471 181.663 542.237C231.011 612.032 328.521 632.677 403.838 587.217C479.155 541.757 505.061 446.611 464.728 371.384C452.177 347.868 434.715 328.775 414.397 314.661" stroke="url(#paint12_linear_0_13)" stroke-width="2" stroke-miterlimit="10"/>
<path d="M153.538 472.082C155.059 499.738 163.358 527.459 179.018 552.783C229.282 634.064 336.381 659.906 418.232 610.503C500.082 561.1 525.695 455.157 475.43 373.876C459.771 348.552 438.584 328.609 414.378 314.645" stroke="url(#paint13_linear_0_13)" stroke-width="2" stroke-miterlimit="10"/>
<path d="M388.364 412.834C326.701 414.457 265.961 383.401 232.735 326.742C199.51 270.084 202.46 202.581 234.568 150.548" stroke="url(#paint14_linear_0_13)" stroke-width="2" stroke-miterlimit="10"/>
<path d="M234.52 150.539C223.362 161.205 213.637 173.767 205.756 187.969C180.999 232.52 179.899 290.911 208.911 340.377C237.916 389.847 289.737 417.951 341.184 418.908C357.58 419.212 373.441 417.135 388.362 412.883" stroke="url(#paint15_linear_0_13)" stroke-width="2" stroke-miterlimit="10"/>
<path d="M234.487 150.537C219.975 159.22 206.594 170.778 195.098 185.072C158.76 230.27 152.21 297.971 185.076 354.011C217.942 410.051 280.657 438.13 338.429 429.484C356.704 426.747 373.514 421.03 388.357 412.915" stroke="url(#paint16_linear_0_13)" stroke-width="2" stroke-miterlimit="10"/>
<path d="M234.457 150.538C216.591 157.236 199.526 167.776 184.434 182.18C136.459 227.987 124.506 305.03 161.235 367.658C197.963 430.287 271.569 458.38 335.664 440.062C355.82 434.302 373.566 424.925 388.341 412.947" stroke="url(#paint17_linear_0_13)" stroke-width="2" stroke-miterlimit="10"/>
<path d="M234.43 150.542C213.205 155.249 192.429 164.729 173.779 179.285C114.062 225.564 96.8203 312.087 137.407 381.297C177.993 450.506 262.571 478.776 332.923 450.633C354.989 441.898 373.651 428.812 388.34 412.973" stroke="url(#paint18_linear_0_13)" stroke-width="2" stroke-miterlimit="10"/>
<path d="M234.407 150.549C209.827 153.271 185.381 161.724 163.132 176.4C91.794 223.266 69.1298 319.149 113.574 394.94C158.017 470.73 253.516 499.015 330.167 461.21C354.121 449.447 373.715 432.71 388.331 413.001" stroke="url(#paint19_linear_0_13)" stroke-width="2" stroke-miterlimit="10"/>
<path d="M234.387 150.558C206.452 151.294 178.329 158.724 152.483 173.508C69.5279 220.969 41.4412 326.212 89.7492 408.579C138.057 490.945 244.465 519.242 327.42 471.781C353.266 456.997 373.782 436.594 388.334 413.029" stroke="url(#paint20_linear_0_13)" stroke-width="2" stroke-miterlimit="10"/>
<path d="M296.268 387.573C292.898 326.412 322.61 265.551 379 231.508C435.39 197.464 503.745 199.122 557.285 229.995" stroke="url(#paint21_linear_0_13)" stroke-width="2" stroke-miterlimit="10"/>
<path d="M557.285 230.037C546.185 219.17 533.205 209.766 518.628 202.208C472.884 178.494 413.803 178.506 364.599 208.209C315.388 237.916 288.419 289.848 288.896 340.888C289.049 357.152 291.594 372.857 296.313 387.575" stroke="url(#paint22_linear_0_13)" stroke-width="2" stroke-miterlimit="10"/>
<path d="M557.281 230.072C548.097 215.844 536.042 202.792 521.265 191.67C474.554 156.488 405.938 151.276 350.2 184.921C294.462 218.565 267.84 281.266 278.204 338.388C281.487 356.457 287.733 373.016 296.35 387.577" stroke="url(#paint23_linear_0_13)" stroke-width="2" stroke-miterlimit="10"/>
<path d="M557.279 230.103C550.013 212.521 538.883 195.803 523.898 181.123C476.26 134.432 398.062 124.045 335.798 161.627C273.534 199.21 247.199 272.694 267.507 335.881C273.888 355.754 283.864 373.169 296.382 387.58" stroke="url(#paint24_linear_0_13)" stroke-width="2" stroke-miterlimit="10"/>
<path d="M557.285 230.129C551.933 209.187 541.775 188.774 526.537 170.573C478.103 112.275 390.19 96.8129 321.4 138.334C252.61 179.855 226.405 264.197 256.811 333.377C266.255 355.075 279.996 373.325 296.414 387.588" stroke="url(#paint25_linear_0_13)" stroke-width="2" stroke-miterlimit="10"/>
<path d="M557.294 230.153C553.855 205.851 544.629 181.787 529.178 160.021C479.831 90.2254 382.32 69.5809 307.003 115.041C231.686 160.5 205.78 255.646 246.113 330.874C258.664 354.39 276.126 373.482 296.444 387.597" stroke="url(#paint26_linear_0_13)" stroke-width="2" stroke-miterlimit="10"/>
<path d="M557.3 230.176C555.771 202.524 547.479 174.798 531.819 149.475C481.555 68.1935 374.456 42.3514 292.606 91.7544C210.755 141.158 185.15 247.096 235.414 328.378C251.074 353.701 272.26 373.644 296.467 387.608" stroke="url(#paint27_linear_0_13)" stroke-width="2" stroke-miterlimit="10"/>
</g>
<defs>
<linearGradient id="paint0_linear_0_13" x1="557.176" y1="505.219" x2="472.551" y2="553.303" gradientUnits="userSpaceOnUse">
<stop stop-color="#0C71CE"/>
<stop offset="0.515625" stop-color="#0085FF" stop-opacity="0.6"/>
<stop offset="1" stop-color="#6FBAFF" stop-opacity="0.81"/>
</linearGradient>
<linearGradient id="paint1_linear_0_13" x1="580.684" y1="491.057" x2="469.828" y2="552.423" gradientUnits="userSpaceOnUse">
<stop stop-color="#0C71CE"/>
<stop offset="0.515625" stop-color="#0085FF" stop-opacity="0.6"/>
<stop offset="1" stop-color="#6FBAFF" stop-opacity="0.81"/>
</linearGradient>
<linearGradient id="paint2_linear_0_13" x1="604.199" y1="476.892" x2="466.838" y2="550.944" gradientUnits="userSpaceOnUse">
<stop stop-color="#0C71CE"/>
<stop offset="0.515625" stop-color="#0085FF" stop-opacity="0.6"/>
<stop offset="1" stop-color="#6FBAFF" stop-opacity="0.81"/>
</linearGradient>
<linearGradient id="paint3_linear_0_13" x1="628.692" y1="464.281" x2="464.621" y2="550.563" gradientUnits="userSpaceOnUse">
<stop stop-color="#0C71CE"/>
<stop offset="0.515625" stop-color="#0085FF" stop-opacity="0.6"/>
<stop offset="1" stop-color="#6FBAFF" stop-opacity="0.81"/>
</linearGradient>
<linearGradient id="paint4_linear_0_13" x1="654.797" y1="454.29" x2="463.962" y2="552.584" gradientUnits="userSpaceOnUse">
<stop stop-color="#0C71CE"/>
<stop offset="0.515625" stop-color="#0085FF" stop-opacity="0.6"/>
<stop offset="1" stop-color="#6FBAFF" stop-opacity="0.81"/>
</linearGradient>
<linearGradient id="paint5_linear_0_13" x1="681.734" y1="445.663" x2="464.1" y2="555.798" gradientUnits="userSpaceOnUse">
<stop stop-color="#0C71CE"/>
<stop offset="0.515625" stop-color="#0085FF" stop-opacity="0.6"/>
<stop offset="1" stop-color="#6FBAFF" stop-opacity="0.81"/>
</linearGradient>
<linearGradient id="paint6_linear_0_13" x1="709.168" y1="437.826" x2="464.693" y2="559.671" gradientUnits="userSpaceOnUse">
<stop stop-color="#0C71CE"/>
<stop offset="0.515625" stop-color="#0085FF" stop-opacity="0.6"/>
<stop offset="1" stop-color="#6FBAFF" stop-opacity="0.81"/>
</linearGradient>
<linearGradient id="paint7_linear_0_13" x1="462.348" y1="391.961" x2="162.809" y2="439.48" gradientUnits="userSpaceOnUse">
<stop stop-color="#0C71CE"/>
<stop offset="0.515625" stop-color="#0085FF" stop-opacity="0.6"/>
<stop offset="1" stop-color="#6FBAFF" stop-opacity="0.81"/>
</linearGradient>
<linearGradient id="paint8_linear_0_13" x1="476.727" y1="415.28" x2="173.257" y2="490.522" gradientUnits="userSpaceOnUse">
<stop stop-color="#0C71CE"/>
<stop offset="0.515625" stop-color="#0085FF" stop-opacity="0.6"/>
<stop offset="1" stop-color="#6FBAFF" stop-opacity="0.81"/>
</linearGradient>
<linearGradient id="paint9_linear_0_13" x1="491.106" y1="438.585" x2="187.665" y2="532.099" gradientUnits="userSpaceOnUse">
<stop stop-color="#0C71CE"/>
<stop offset="0.515625" stop-color="#0085FF" stop-opacity="0.6"/>
<stop offset="1" stop-color="#6FBAFF" stop-opacity="0.81"/>
</linearGradient>
<linearGradient id="paint10_linear_0_13" x1="507.066" y1="460.938" x2="201.098" y2="567.64" gradientUnits="userSpaceOnUse">
<stop stop-color="#0C71CE"/>
<stop offset="0.515625" stop-color="#0085FF" stop-opacity="0.6"/>
<stop offset="1" stop-color="#6FBAFF" stop-opacity="0.81"/>
</linearGradient>
<linearGradient id="paint11_linear_0_13" x1="525.672" y1="481.695" x2="211.156" y2="599.652" gradientUnits="userSpaceOnUse">
<stop stop-color="#0C71CE"/>
<stop offset="0.515625" stop-color="#0085FF" stop-opacity="0.6"/>
<stop offset="1" stop-color="#6FBAFF" stop-opacity="0.81"/>
</linearGradient>
<linearGradient id="paint12_linear_0_13" x1="545.656" y1="501.618" x2="219.336" y2="630.031" gradientUnits="userSpaceOnUse">
<stop stop-color="#0C71CE"/>
<stop offset="0.515625" stop-color="#0085FF" stop-opacity="0.6"/>
<stop offset="1" stop-color="#6FBAFF" stop-opacity="0.81"/>
</linearGradient>
<linearGradient id="paint13_linear_0_13" x1="566.441" y1="521.048" x2="226.374" y2="659.528" gradientUnits="userSpaceOnUse">
<stop stop-color="#0C71CE"/>
<stop offset="0.515625" stop-color="#0085FF" stop-opacity="0.6"/>
<stop offset="1" stop-color="#6FBAFF" stop-opacity="0.81"/>
</linearGradient>
<linearGradient id="paint14_linear_0_13" x1="394.457" y1="409.155" x2="306.421" y2="459.007" gradientUnits="userSpaceOnUse">
<stop stop-color="#0C71CE"/>
<stop offset="0.515625" stop-color="#0085FF" stop-opacity="0.6"/>
<stop offset="1" stop-color="#6FBAFF" stop-opacity="0.81"/>
</linearGradient>
<linearGradient id="paint15_linear_0_13" x1="394.457" y1="409.204" x2="280.164" y2="472.254" gradientUnits="userSpaceOnUse">
<stop stop-color="#0C71CE"/>
<stop offset="0.515625" stop-color="#0085FF" stop-opacity="0.6"/>
<stop offset="1" stop-color="#6FBAFF" stop-opacity="0.81"/>
</linearGradient>
<linearGradient id="paint16_linear_0_13" x1="394.453" y1="409.235" x2="253.621" y2="484.892" gradientUnits="userSpaceOnUse">
<stop stop-color="#0C71CE"/>
<stop offset="0.515625" stop-color="#0085FF" stop-opacity="0.6"/>
<stop offset="1" stop-color="#6FBAFF" stop-opacity="0.81"/>
</linearGradient>
<linearGradient id="paint17_linear_0_13" x1="395.152" y1="410.406" x2="227.59" y2="498.218" gradientUnits="userSpaceOnUse">
<stop stop-color="#0C71CE"/>
<stop offset="0.515625" stop-color="#0085FF" stop-opacity="0.6"/>
<stop offset="1" stop-color="#6FBAFF" stop-opacity="0.81"/>
</linearGradient>
<linearGradient id="paint18_linear_0_13" x1="397.469" y1="414.195" x2="203.136" y2="513.951" gradientUnits="userSpaceOnUse">
<stop stop-color="#0C71CE"/>
<stop offset="0.515625" stop-color="#0085FF" stop-opacity="0.6"/>
<stop offset="1" stop-color="#6FBAFF" stop-opacity="0.81"/>
</linearGradient>
<linearGradient id="paint19_linear_0_13" x1="400.656" y1="419.39" x2="179.505" y2="530.936" gradientUnits="userSpaceOnUse">
<stop stop-color="#0C71CE"/>
<stop offset="0.515625" stop-color="#0085FF" stop-opacity="0.6"/>
<stop offset="1" stop-color="#6FBAFF" stop-opacity="0.81"/>
</linearGradient>
<linearGradient id="paint20_linear_0_13" x1="404.352" y1="425.404" x2="156.36" y2="548.612" gradientUnits="userSpaceOnUse">
<stop stop-color="#0C71CE"/>
<stop offset="0.515625" stop-color="#0085FF" stop-opacity="0.6"/>
<stop offset="1" stop-color="#6FBAFF" stop-opacity="0.81"/>
</linearGradient>
<linearGradient id="paint21_linear_0_13" x1="557.285" y1="229.995" x2="257.747" y2="277.514" gradientUnits="userSpaceOnUse">
<stop stop-color="#0C71CE"/>
<stop offset="0.515625" stop-color="#0085FF" stop-opacity="0.6"/>
<stop offset="1" stop-color="#6FBAFF" stop-opacity="0.81"/>
</linearGradient>
<linearGradient id="paint22_linear_0_13" x1="557.285" y1="230.037" x2="253.815" y2="305.279" gradientUnits="userSpaceOnUse">
<stop stop-color="#0C71CE"/>
<stop offset="0.515625" stop-color="#0085FF" stop-opacity="0.6"/>
<stop offset="1" stop-color="#6FBAFF" stop-opacity="0.81"/>
</linearGradient>
<linearGradient id="paint23_linear_0_13" x1="557.281" y1="230.072" x2="253.841" y2="323.587" gradientUnits="userSpaceOnUse">
<stop stop-color="#0C71CE"/>
<stop offset="0.515625" stop-color="#0085FF" stop-opacity="0.6"/>
<stop offset="1" stop-color="#6FBAFF" stop-opacity="0.81"/>
</linearGradient>
<linearGradient id="paint24_linear_0_13" x1="558.859" y1="229.149" x2="252.891" y2="335.851" gradientUnits="userSpaceOnUse">
<stop stop-color="#0C71CE"/>
<stop offset="0.515625" stop-color="#0085FF" stop-opacity="0.6"/>
<stop offset="1" stop-color="#6FBAFF" stop-opacity="0.81"/>
</linearGradient>
<linearGradient id="paint25_linear_0_13" x1="563.086" y1="226.628" x2="248.57" y2="344.585" gradientUnits="userSpaceOnUse">
<stop stop-color="#0C71CE"/>
<stop offset="0.515625" stop-color="#0085FF" stop-opacity="0.6"/>
<stop offset="1" stop-color="#6FBAFF" stop-opacity="0.81"/>
</linearGradient>
<linearGradient id="paint26_linear_0_13" x1="568.688" y1="223.276" x2="242.367" y2="351.689" gradientUnits="userSpaceOnUse">
<stop stop-color="#0C71CE"/>
<stop offset="0.515625" stop-color="#0085FF" stop-opacity="0.6"/>
<stop offset="1" stop-color="#6FBAFF" stop-opacity="0.81"/>
</linearGradient>
<linearGradient id="paint27_linear_0_13" x1="575.086" y1="219.441" x2="235.027" y2="357.919" gradientUnits="userSpaceOnUse">
<stop stop-color="#0C71CE"/>
<stop offset="0.515625" stop-color="#0085FF" stop-opacity="0.6"/>
<stop offset="1" stop-color="#6FBAFF" stop-opacity="0.81"/>
</linearGradient>
</defs>
</svg>
