<svg width="157" height="586" viewBox="0 0 157 586" fill="none" xmlns="http://www.w3.org/2000/svg">
<g opacity="0.5">
<path d="M358.121 302.695C321.615 351.882 259.862 379.691 194.736 369.822C129.61 359.954 78.0971 314.982 56.668 257.016" stroke="url(#paint0_linear_0_883)" stroke-width="2" stroke-miterlimit="10"/>
<path d="M56.6957 256.985C58.285 272.436 62.2554 287.966 68.633 303.096C88.6512 350.574 134.092 388.332 190.917 396.945C247.743 405.558 301.687 382.863 333.948 343.309C344.227 330.703 352.31 317 358.089 302.665" stroke="url(#paint1_linear_0_883)" stroke-width="2" stroke-miterlimit="10"/>
<path d="M56.7216 256.96C54.6893 273.773 55.6155 291.516 59.8693 309.514C73.2998 366.429 122.734 414.301 187.103 424.058C251.473 433.816 312.027 402.618 340.572 352.066C349.598 336.072 355.38 319.346 358.062 302.64" stroke="url(#paint2_linear_0_883)" stroke-width="2" stroke-miterlimit="10"/>
<path d="M56.7384 256.935C51.0866 275.1 48.9591 295.071 51.0982 315.939C57.8843 382.297 111.379 440.273 183.284 451.175C255.189 462.076 322.416 422.402 347.192 360.829C354.988 341.468 358.449 321.698 358.035 302.614" stroke="url(#paint3_linear_0_883)" stroke-width="2" stroke-miterlimit="10"/>
<path d="M56.7542 256.913C47.4825 276.439 42.245 298.63 42.3279 322.367C42.3064 398.16 100.027 466.248 179.469 478.293C258.911 490.338 332.978 442.231 353.819 369.595C360.427 346.872 361.527 324.054 358.019 302.59" stroke="url(#paint4_linear_0_883)" stroke-width="2" stroke-miterlimit="10"/>
<path d="M56.7644 256.89C43.8733 277.777 35.5853 302.18 33.5534 328.795C26.8844 414.013 88.6726 492.222 175.651 505.41C262.63 518.598 343.374 461.992 360.447 378.36C365.828 352.253 364.605 326.408 358.003 302.565" stroke="url(#paint5_linear_0_883)" stroke-width="2" stroke-miterlimit="10"/>
<path d="M56.7716 256.867C40.2624 279.107 28.9232 305.73 24.7777 335.214C11.4714 429.851 77.3103 518.186 171.834 532.519C266.358 546.851 353.779 481.754 367.085 387.117C371.23 357.633 367.687 328.753 357.998 302.541" stroke="url(#paint6_linear_0_883)" stroke-width="2" stroke-miterlimit="10"/>
<path d="M324.571 61.3463C307.861 58.7467 290.182 59.0809 272.204 62.7241C215.367 74.2516 167.052 122.127 156.502 186.232C145.953 250.336 176.231 312.019 226.184 342.301C241.988 351.879 258.568 358.228 275.171 361.476" stroke="url(#paint7_linear_0_883)" stroke-width="2" stroke-miterlimit="10"/>
<path d="M324.547 61.3279C306.526 55.058 286.665 52.2545 265.852 53.6832C199.677 58.2412 141.236 109.845 129.445 181.485C117.653 253.125 156.297 321.782 217.296 348.669C236.478 357.124 256.119 361.256 275.138 361.491" stroke="url(#paint8_linear_0_883)" stroke-width="2" stroke-miterlimit="10"/>
<path d="M324.523 61.3139C305.192 51.365 283.156 45.3745 259.509 44.6462C184.003 42.0599 115.434 97.5743 102.402 176.741C89.371 255.908 136.339 331.714 208.43 355.044C230.983 362.434 253.699 364.3 275.12 361.51" stroke="url(#paint9_linear_0_883)" stroke-width="2" stroke-miterlimit="10"/>
<path d="M324.501 61.3049C303.859 47.6847 279.657 38.558 253.166 35.6211C168.347 26.058 89.6252 85.304 75.3532 171.997C61.0813 258.691 116.438 341.489 199.55 361.417C225.49 367.684 251.256 367.338 275.095 361.525" stroke="url(#paint10_linear_0_883)" stroke-width="2" stroke-miterlimit="10"/>
<path d="M324.48 61.2993C302.527 44.0074 276.151 31.743 246.825 26.5903C152.693 10.0579 63.8179 73.0351 48.3135 167.256C32.8092 261.477 96.5477 351.258 190.68 367.79C220.006 372.943 248.825 370.368 275.079 361.549" stroke="url(#paint11_linear_0_883)" stroke-width="2" stroke-miterlimit="10"/>
</g>
<defs>
<linearGradient id="paint0_linear_0_883" x1="345.463" y1="392.662" x2="84.7421" y2="237.723" gradientUnits="userSpaceOnUse">
<stop stop-color="#0C71CE"/>
<stop offset="0.515625" stop-color="#0085FF" stop-opacity="0.6"/>
<stop offset="1" stop-color="#6FBAFF" stop-opacity="0.81"/>
</linearGradient>
<linearGradient id="paint1_linear_0_883" x1="341.614" y1="419.786" x2="60.148" y2="283.652" gradientUnits="userSpaceOnUse">
<stop stop-color="#0C71CE"/>
<stop offset="0.515625" stop-color="#0085FF" stop-opacity="0.6"/>
<stop offset="1" stop-color="#6FBAFF" stop-opacity="0.81"/>
</linearGradient>
<linearGradient id="paint2_linear_0_883" x1="337.773" y1="446.899" x2="44.6491" y2="324.836" gradientUnits="userSpaceOnUse">
<stop stop-color="#0C71CE"/>
<stop offset="0.515625" stop-color="#0085FF" stop-opacity="0.6"/>
<stop offset="1" stop-color="#6FBAFF" stop-opacity="0.81"/>
</linearGradient>
<linearGradient id="paint3_linear_0_883" x1="335.758" y1="474.291" x2="32.2592" y2="360.754" gradientUnits="userSpaceOnUse">
<stop stop-color="#0C71CE"/>
<stop offset="0.515625" stop-color="#0085FF" stop-opacity="0.6"/>
<stop offset="1" stop-color="#6FBAFF" stop-opacity="0.81"/>
</linearGradient>
<linearGradient id="paint4_linear_0_883" x1="336.797" y1="502.147" x2="19.5302" y2="391.801" gradientUnits="userSpaceOnUse">
<stop stop-color="#0C71CE"/>
<stop offset="0.515625" stop-color="#0085FF" stop-opacity="0.6"/>
<stop offset="1" stop-color="#6FBAFF" stop-opacity="0.81"/>
</linearGradient>
<linearGradient id="paint5_linear_0_883" x1="339.428" y1="530.243" x2="6.40065" y2="420.391" gradientUnits="userSpaceOnUse">
<stop stop-color="#0C71CE"/>
<stop offset="0.515625" stop-color="#0085FF" stop-opacity="0.6"/>
<stop offset="1" stop-color="#6FBAFF" stop-opacity="0.81"/>
</linearGradient>
<linearGradient id="paint6_linear_0_883" x1="342.992" y1="558.471" x2="-7.04218" y2="447.573" gradientUnits="userSpaceOnUse">
<stop stop-color="#0C71CE"/>
<stop offset="0.515625" stop-color="#0085FF" stop-opacity="0.6"/>
<stop offset="1" stop-color="#6FBAFF" stop-opacity="0.81"/>
</linearGradient>
<linearGradient id="paint7_linear_0_883" x1="282.211" y1="362.543" x2="125.547" y2="330.696" gradientUnits="userSpaceOnUse">
<stop stop-color="#0C71CE"/>
<stop offset="0.515625" stop-color="#0085FF" stop-opacity="0.6"/>
<stop offset="1" stop-color="#6FBAFF" stop-opacity="0.81"/>
</linearGradient>
<linearGradient id="paint8_linear_0_883" x1="282" y1="363.891" x2="97.0111" y2="324.303" gradientUnits="userSpaceOnUse">
<stop stop-color="#0C71CE"/>
<stop offset="0.515625" stop-color="#0085FF" stop-opacity="0.6"/>
<stop offset="1" stop-color="#6FBAFF" stop-opacity="0.81"/>
</linearGradient>
<linearGradient id="paint9_linear_0_883" x1="281.359" y1="368.285" x2="68.1483" y2="320.77" gradientUnits="userSpaceOnUse">
<stop stop-color="#0C71CE"/>
<stop offset="0.515625" stop-color="#0085FF" stop-opacity="0.6"/>
<stop offset="1" stop-color="#6FBAFF" stop-opacity="0.81"/>
</linearGradient>
<linearGradient id="paint10_linear_0_883" x1="280.489" y1="374.318" x2="39.1176" y2="318.725" gradientUnits="userSpaceOnUse">
<stop stop-color="#0C71CE"/>
<stop offset="0.515625" stop-color="#0085FF" stop-opacity="0.6"/>
<stop offset="1" stop-color="#6FBAFF" stop-opacity="0.81"/>
</linearGradient>
<linearGradient id="paint11_linear_0_883" x1="279.486" y1="381.305" x2="10.0206" y2="317.522" gradientUnits="userSpaceOnUse">
<stop stop-color="#0C71CE"/>
<stop offset="0.515625" stop-color="#0085FF" stop-opacity="0.6"/>
<stop offset="1" stop-color="#6FBAFF" stop-opacity="0.81"/>
</linearGradient>
</defs>
</svg>
