<svg width="478" height="583" viewBox="0 0 478 583" fill="none" xmlns="http://www.w3.org/2000/svg">
<g opacity="0.15">
<path d="M9.60592 538.961C-73.7487 501.619 -159.782 415.072 162.921 367.611C485.625 320.151 157.2 206.122 -47.3507 155.04C227.818 201.674 673.948 225.855 257.12 -50.4903" stroke="#FCFCFC"/>
<path d="M2.57467 531.851C-80.78 494.51 -166.813 407.963 155.89 360.502C478.594 313.041 150.169 199.012 -54.382 147.931C220.787 194.564 666.917 218.746 250.089 -57.5995" stroke="#FCFCFC"/>
<path d="M-4.45658 524.742C-87.8112 487.401 -173.845 400.853 148.859 353.393C471.562 305.932 143.137 191.903 -61.4132 140.821C213.755 187.455 659.886 211.637 243.058 -64.7087" stroke="#FCFCFC"/>
<path d="M-11.4917 517.633C-94.8464 480.291 -180.88 393.744 141.824 346.283C464.527 298.823 136.102 184.794 -68.4484 133.712C206.72 180.346 652.85 204.527 236.023 -71.8182" stroke="#FCFCFC"/>
<path d="M-18.523 510.523C-101.878 473.181 -187.911 386.634 134.793 339.173C457.496 291.713 129.071 177.684 -75.4796 126.602C199.689 173.236 645.819 197.417 228.991 -78.9284" stroke="#FCFCFC"/>
<path d="M-25.5542 503.413C-108.909 466.072 -194.942 379.525 127.761 332.064C450.465 284.603 122.04 170.574 -82.5109 119.492C192.658 166.126 638.788 190.308 221.96 -86.0376" stroke="#FCFCFC"/>
<path d="M-32.5894 496.304C-115.944 458.963 -201.977 372.415 120.726 324.955C443.43 277.494 115.005 163.465 -89.546 112.383C185.623 159.017 631.753 183.198 214.925 -93.1468" stroke="#FCFCFC"/>
<path d="M-39.6206 489.195C-122.975 451.853 -209.009 365.306 113.695 317.845C436.398 270.385 107.973 156.356 -96.5773 105.274C178.591 151.908 624.722 176.089 207.894 -100.256" stroke="#FCFCFC"/>
<path d="M-46.6558 482.085C-130.01 444.744 -216.044 358.197 106.66 310.736C429.363 263.275 100.938 149.246 -103.612 98.1645C171.556 144.798 617.686 168.98 200.858 -107.366" stroke="#FCFCFC"/>
<path d="M-53.687 474.976C-137.042 437.635 -223.075 351.087 99.6285 303.627C422.332 256.166 93.9069 142.137 -110.644 91.0553C164.525 137.689 610.655 161.871 193.827 -114.475" stroke="#FCFCFC"/>
<path d="M-60.7183 467.867C-144.073 430.526 -230.106 343.978 92.5972 296.518C415.301 249.057 86.8756 135.028 -117.675 83.9461C157.494 130.58 603.624 154.761 186.796 -121.584" stroke="#FCFCFC"/>
<path d="M-67.7535 460.757C-151.108 423.415 -237.141 336.868 85.5621 289.407C408.266 241.947 79.8405 127.918 -124.71 76.8357C150.458 123.47 596.589 147.651 179.761 -128.694" stroke="#FCFCFC"/>
<path d="M-74.7847 453.647C-158.139 416.306 -244.173 329.758 78.5308 282.298C401.234 234.837 72.8092 120.808 -131.741 69.7265C143.427 116.36 589.557 140.542 172.73 -135.804" stroke="#FCFCFC"/>
<path d="M-81.816 446.538C-165.171 409.197 -251.204 322.649 71.4996 275.189C394.203 227.728 65.778 113.699 -138.773 62.6172C136.396 109.251 582.526 133.432 165.698 -142.913" stroke="#FCFCFC"/>
<path d="M-88.8472 439.429C-172.202 402.088 -258.235 315.54 64.4683 268.079C387.172 220.619 58.7467 106.59 -145.804 55.508C129.365 102.142 575.495 126.323 158.667 -150.022" stroke="#FCFCFC"/>
<path d="M-95.8824 432.32C-179.237 394.978 -265.27 308.431 57.4332 260.97C380.137 213.51 51.7115 99.4807 -152.839 48.3988C122.33 95.0326 568.46 119.214 151.632 -157.131" stroke="#FCFCFC"/>
<path d="M-102.914 425.21C-186.268 387.869 -272.302 301.321 50.4019 253.861C373.105 206.4 44.6803 92.3712 -159.87 41.2893C115.298 87.9231 561.429 112.105 144.601 -164.241" stroke="#FCFCFC"/>
<path d="M-109.945 418.101C-193.299 380.76 -279.333 294.212 43.3707 246.752C366.074 199.291 37.649 85.262 -166.901 34.1801C108.267 80.8139 554.397 104.995 137.569 -171.35" stroke="#FCFCFC"/>
<path d="M-116.98 410.992C-200.335 373.65 -286.368 287.103 36.3355 239.642C359.039 192.182 30.6139 78.1528 -173.937 27.0708C101.232 73.7047 547.362 97.8861 130.534 -178.459" stroke="#FCFCFC"/>
<path d="M-124.011 403.882C-207.366 366.54 -293.399 279.993 29.3043 232.532C352.008 185.072 23.5826 71.0426 -180.968 19.9607C94.2007 66.5945 540.331 90.7759 123.503 -185.569" stroke="#FCFCFC"/>
<path d="M-131.043 396.772C-214.397 359.431 -300.431 272.883 22.273 225.423C344.977 177.962 16.5514 63.9331 -187.999 12.8512C87.1694 59.4851 533.3 83.6664 116.472 -192.679" stroke="#FCFCFC"/>
<path d="M-138.078 389.663C-221.432 352.322 -307.466 265.774 15.2379 218.313C337.941 170.853 9.51624 56.8239 -195.034 5.74198C80.1343 52.3758 526.264 76.5572 109.437 -199.788" stroke="#FCFCFC"/>
<path d="M-145.109 382.554C-228.464 345.212 -314.497 258.665 8.20661 211.204C330.91 163.744 2.48499 49.7147 -202.066 -1.36726C73.103 45.2666 519.233 69.448 102.405 -206.897" stroke="#FCFCFC"/>
<path d="M-152.14 375.444C-235.495 338.103 -321.528 251.556 1.17536 204.095C323.879 156.634 -4.54626 42.6054 -209.097 -8.47649C66.0718 38.1574 512.202 62.3387 95.3741 -214.007" stroke="#FCFCFC"/>
<path d="M-159.175 368.335C-242.53 330.994 -328.563 244.446 -5.8598 196.986C316.844 149.525 -11.5814 35.496 -216.132 -15.586C59.0366 31.0479 505.167 55.2293 88.3389 -221.116" stroke="#FCFCFC"/>
</g>
</svg>
