<svg width="85" height="78" viewBox="0 0 85 78" fill="none" xmlns="http://www.w3.org/2000/svg">
<path d="M51.0258 77.4855V49.1999C51.0258 36.1794 53.8319 25.4039 59.4441 16.8733C65.2809 8.34273 73.6992 2.73049 84.6992 0.0366211V11.8223C77.9645 13.6182 73.138 16.9856 70.2196 21.9244C67.3013 26.6386 65.6176 32.8121 65.1686 40.4447H77.9645V77.4855H51.0258ZM0.515625 77.4855V49.1999C0.515625 36.1794 3.32174 25.4039 8.93398 16.8733C14.7707 8.34273 23.1891 2.73049 34.1891 0.0366211V11.8223C27.4544 13.6182 22.6278 16.9856 19.7095 21.9244C16.7911 26.6386 15.1074 32.8121 14.6585 40.4447H27.4544V77.4855H0.515625Z" fill="#0B0A0A"/>
</svg>
