<svg width="25" height="20" viewBox="0 0 25 20" fill="none" xmlns="http://www.w3.org/2000/svg">
<path d="M24 1.01009C24 1.01009 21.8903 2.20583 20.7173 2.54489C20.0876 1.85023 19.2508 1.35787 18.3201 1.1344C17.3893 0.910937 16.4095 0.967149 15.5131 1.29543C14.6167 1.62372 13.847 2.20824 13.3081 2.96994C12.7692 3.73163 12.4871 4.63376 12.5 5.55431V6.55744C10.6628 6.60316 8.84224 6.21218 7.2006 5.41933C5.55896 4.62648 4.14715 3.45638 3.09091 2.01323C3.09091 2.01323 -1.09091 11.0415 8.31818 15.054C6.1651 16.4564 3.60021 17.1595 1 17.0603C10.4091 22.076 21.9091 17.0603 21.9091 5.52421C21.9091 5.24534 21.8798 4.96647 21.8255 4.69161C22.8918 3.68245 24 1.01009 24 1.01009Z" stroke="#1C2AC9" stroke-width="1.5" stroke-linecap="round" stroke-linejoin="round"/>
</svg>
