<svg width="60" height="60" viewBox="0 0 60 60" fill="none" xmlns="http://www.w3.org/2000/svg">
<g filter="url(#filter0_b_0_400)">
<circle cx="30" cy="30" r="30" fill="#FFE500" fill-opacity="0.1"/>
</g>
<path d="M30 16C29.2044 16 28.4413 16.3161 27.8787 16.8787C27.3161 17.4413 27 18.2044 27 19C27 19.7956 27.3161 20.5587 27.8787 21.1213C28.4413 21.6839 29.2044 22 30 22C30.7956 22 31.5587 21.6839 32.1213 21.1213C32.6839 20.5587 33 19.7956 33 19C33 18.2044 32.6839 17.4413 32.1213 16.8787C31.5587 16.3161 30.7956 16 30 16ZM25 19C25 17.6739 25.5268 16.4021 26.4645 15.4645C27.4021 14.5268 28.6739 14 30 14C31.3261 14 32.5979 14.5268 33.5355 15.4645C34.4732 16.4021 35 17.6739 35 19C35 20.3261 34.4732 21.5979 33.5355 22.5355C32.5979 23.4732 31.3261 24 30 24C28.6739 24 27.4021 23.4732 26.4645 22.5355C25.5268 21.5979 25 20.3261 25 19ZM41 18C40.4696 18 39.9609 18.2107 39.5858 18.5858C39.2107 18.9609 39 19.4696 39 20C39 20.5304 39.2107 21.0391 39.5858 21.4142C39.9609 21.7893 40.4696 22 41 22C41.5304 22 42.0391 21.7893 42.4142 21.4142C42.7893 21.0391 43 20.5304 43 20C43 19.4696 42.7893 18.9609 42.4142 18.5858C42.0391 18.2107 41.5304 18 41 18ZM37 20C37 18.9391 37.4214 17.9217 38.1716 17.1716C38.9217 16.4214 39.9391 16 41 16C42.0609 16 43.0783 16.4214 43.8284 17.1716C44.5786 17.9217 45 18.9391 45 20C45 21.0609 44.5786 22.0783 43.8284 22.8284C43.0783 23.5786 42.0609 24 41 24C39.9391 24 38.9217 23.5786 38.1716 22.8284C37.4214 22.0783 37 21.0609 37 20ZM17 20C17 19.4696 17.2107 18.9609 17.5858 18.5858C17.9609 18.2107 18.4696 18 19 18C19.5304 18 20.0391 18.2107 20.4142 18.5858C20.7893 18.9609 21 19.4696 21 20C21 20.5304 20.7893 21.0391 20.4142 21.4142C20.0391 21.7893 19.5304 22 19 22C18.4696 22 17.9609 21.7893 17.5858 21.4142C17.2107 21.0391 17 20.5304 17 20ZM19 16C17.9391 16 16.9217 16.4214 16.1716 17.1716C15.4214 17.9217 15 18.9391 15 20C15 21.0609 15.4214 22.0783 16.1716 22.8284C16.9217 23.5786 17.9391 24 19 24C20.0609 24 21.0783 23.5786 21.8284 22.8284C22.5786 22.0783 23 21.0609 23 20C23 18.9391 22.5786 17.9217 21.8284 17.1716C21.0783 16.4214 20.0609 16 19 16ZM20.2 39.996C19.6585 40.0231 19.1171 39.9398 18.6087 39.7512C18.1004 39.5627 17.6357 39.2727 17.2428 38.8989C16.85 38.5252 16.5373 38.0755 16.3236 37.5771C16.11 37.0788 15.9999 36.5422 16 36V28.5C16 28.3674 16.0527 28.2402 16.1464 28.1464C16.2402 28.0527 16.3674 28 16.5 28H20.028C20.108 27.266 20.368 26.584 20.758 26H16.5C15.12 26 14 27.12 14 28.5V36C13.9999 36.8562 14.1831 37.7026 14.5372 38.4822C14.8913 39.2617 15.4082 39.9565 16.0531 40.5197C16.698 41.083 17.456 41.5017 18.2761 41.7477C19.0963 41.9937 19.9596 42.0613 20.808 41.946C20.5388 41.3186 20.3351 40.6652 20.2 39.996ZM39.192 41.946C40.0404 42.0613 40.9037 41.9937 41.7239 41.7477C42.544 41.5017 43.302 41.083 43.9469 40.5197C44.5918 39.9565 45.1087 39.2617 45.4628 38.4822C45.8169 37.7026 46.0001 36.8562 46 36V28.5C46 27.12 44.88 26 43.5 26H39.242C39.634 26.584 39.892 27.266 39.972 28H43.5C43.6326 28 43.7598 28.0527 43.8536 28.1464C43.9473 28.2402 44 28.3674 44 28.5V36C44.0001 36.5422 43.89 37.0788 43.6764 37.5771C43.4627 38.0755 43.15 38.5252 42.7572 38.8989C42.3643 39.2727 41.8996 39.5627 41.3913 39.7512C40.8829 39.9398 40.3415 40.0231 39.8 39.996C39.6649 40.6652 39.4611 41.3186 39.192 41.946ZM24.5 26C23.12 26 22 27.12 22 28.5V38C22 40.1217 22.8429 42.1566 24.3431 43.6569C25.8434 45.1571 27.8783 46 30 46C32.1217 46 34.1566 45.1571 35.6569 43.6569C37.1571 42.1566 38 40.1217 38 38V28.5C38 27.12 36.88 26 35.5 26H24.5ZM24 28.5C24 28.3674 24.0527 28.2402 24.1464 28.1464C24.2402 28.0527 24.3674 28 24.5 28H35.5C35.6326 28 35.7598 28.0527 35.8536 28.1464C35.9473 28.2402 36 28.3674 36 28.5V38C36 39.5913 35.3679 41.1174 34.2426 42.2426C33.1174 43.3679 31.5913 44 30 44C28.4087 44 26.8826 43.3679 25.7574 42.2426C24.6321 41.1174 24 39.5913 24 38V28.5Z" fill="#FFE500"/>
<defs>
<filter id="filter0_b_0_400" x="-20" y="-20" width="100" height="100" filterUnits="userSpaceOnUse" color-interpolation-filters="sRGB">
<feFlood flood-opacity="0" result="BackgroundImageFix"/>
<feGaussianBlur in="BackgroundImageFix" stdDeviation="10"/>
<feComposite in2="SourceAlpha" operator="in" result="effect1_backgroundBlur_0_400"/>
<feBlend mode="normal" in="SourceGraphic" in2="effect1_backgroundBlur_0_400" result="shape"/>
</filter>
</defs>
</svg>
